<svg width="512" height="649" viewBox="0 0 512 649" fill="none" xmlns="http://www.w3.org/2000/svg">
<g filter="url(#filter0_d_539_51)">
<path d="M18 527.047V509.819C18 499.404 20.8105 489.051 27.5331 481.096C57.5643 445.557 111.813 415.609 152.454 397.595C171.161 389.303 184.094 371.187 184.094 350.726C184.094 338.397 179.284 326.617 171.011 317.476C139.131 282.25 117.754 247.043 125.61 145.338C134.5 30.2549 352.528 -8.10596 375.454 157.969C386.756 239.841 357.505 291.301 333.471 316.49C323.411 327.034 315.566 340.4 315.566 354.973C315.566 372.868 326.992 388.617 343.402 395.754C400.758 420.698 445.446 455.691 470.109 479.395C479.454 488.376 484 500.994 484 513.954V520.948C484 541.587 472.242 560.641 453.252 568.727C267.873 647.66 114.893 609.061 41.4063 569.212C26.1534 560.941 18 544.398 18 527.047Z" fill="#F3EDFF"/>
</g>
<path d="M183.879 351.808C183.879 370.598 174.758 385.539 157.372 396.256C154.978 405.275 159.31 431.561 162.445 459.954L150.475 460.372L145.772 442.835V460.372C144.347 460.511 141.069 460.706 139.359 460.372C137.649 460.038 133.231 442.139 131.236 433.231C129.526 440.246 133.659 453.969 135.939 459.954H123.968L121.617 458.284L119.266 456.614L120.548 459.954H109.005C101.823 455.278 96.3218 437.128 94.4692 428.638C92.7591 436.989 98.8869 452.995 102.165 459.954L91.0491 457.867C77.7104 443.169 77.7959 404.142 79.506 386.465C81.0736 375.609 85.9188 348.969 92.7592 329.261C99.5996 309.552 99.8845 253.684 99.172 228.213C89.9375 151.384 99.8845 101.834 106.012 86.6633C109.884 68.0804 127.477 33.6638 168.431 14.8174C180.236 9.38476 193.982 5.24588 209.9 3.15302C298.825 -8.53842 337.73 14.0094 378.344 42.4028C407.461 62.758 417.695 106.987 419.815 132.783C420.417 133.28 420.477 134.909 420.117 137.343C420.18 138.608 420.221 139.811 420.242 140.945C420.336 143.389 420.182 146.048 419.815 148.878C420.842 154.223 417.392 190.912 415.539 208.588C417.933 220.28 415.396 231.554 413.829 235.729C413.829 255.076 414.342 295.105 416.394 300.45C418.446 305.794 420.954 339.421 421.952 355.566V401.497V413.606V458.702H410.409C413.145 455.361 412.119 435.875 411.264 426.55C411.606 433.231 405.991 450.768 403.141 458.702H396.728C396.728 445.006 393.878 439.355 392.453 438.242L391.598 458.702H384.33C383.047 451.464 380.482 438.075 380.482 442.417C380.482 446.76 381.622 454.804 382.192 458.284H380.482C376.867 439.32 378.829 424.65 358.251 404.42C355.509 398.742 339.043 397.482 336.02 393.564C334.346 391.394 325.2 381.192 322.396 377.279C306.949 357.905 316.39 336.484 323.654 328.195C352.24 296.044 350.67 293.539 368.996 251.783L366.374 179.36C365.042 177.169 364.921 175.459 365.378 174.099C363.668 171.62 361.861 169.052 359.961 166.416C226.146 187.063 221.159 106.427 203.06 94.1792C196.562 108.543 193.712 132.783 173.133 148.878C151.586 185.623 154.095 266.628 157.372 302.537C172.249 314.161 174.291 316.279 179.147 324.184C182.257 329.248 183.879 335.101 183.879 341.043V351.808Z" fill="#3F1F1C"/>
<path d="M209.9 3.98805C298.825 -7.70338 337.73 14.8444 378.344 43.2379C407.461 63.5931 417.695 107.822 419.815 133.618C420.602 134.268 420.681 137.355 420.248 141.965C418.331 162.386 406.371 212.687 401.488 213.369C396.881 214.012 390.795 204.267 391.485 198.942C389.528 208.923 380.924 230.411 378.829 233.411C376.525 229.029 373.891 197.262 365.149 176.773C363.618 173.184 361.899 169.94 359.961 167.251C359.661 166.835 359.338 166.417 358.992 165.998C355.426 161.68 349.428 157.174 342.005 152.705C318.86 138.771 281.871 125.198 261.631 118.815C250.658 115.196 224.18 101.111 206.053 73.7191C187.926 46.3278 201.065 15.8187 209.9 3.98805Z" fill="#5C332D"/>
<path d="M99.172 229.048C89.9375 152.219 99.8845 102.669 106.012 87.4983C109.884 68.9155 127.477 34.4988 168.431 15.6525C184.163 20.3074 187.527 45.4468 187.242 57.4346C186.529 72.0489 182.71 106.455 173.133 127.166C163.557 147.876 154.037 190.077 150.475 208.588C146.417 209.005 144.815 198.156 144.358 186.491C144.552 200.805 145.436 216.46 147.91 221.95C151.672 230.301 159.51 317.757 158.228 347.403C158.228 349.488 157.748 349.6 157.372 356.589C156.168 378.986 154.077 425.568 156.032 447.845C152.086 445.801 144.197 438.078 141.762 422.867C143.165 435.184 144.54 453.691 141.497 453.691C138.077 453.691 131.521 430.308 128.671 418.617C126.619 427.636 129.526 446.871 131.236 455.361C128.143 456.398 124.562 449.127 122.223 442.825C123.698 449.464 122.573 456.123 121.617 459.119L119.266 457.449L120.548 460.789H109.005C101.823 456.113 96.3218 437.963 94.4692 429.473C92.7591 437.824 98.8869 453.83 102.165 460.789L91.0491 458.702C77.7104 444.004 77.7959 404.977 79.506 387.3C81.0736 376.444 85.9188 349.804 92.7592 330.096C99.5996 310.387 99.8845 254.519 99.172 229.048Z" fill="#5C332D"/>
<path d="M323.679 328.195C344.628 306.065 351.098 291.868 357.881 278.507C360.161 283.239 380.739 309.552 380.055 317.569C382.032 304.437 384.79 269.885 383.839 264.249C383.257 263.469 383.079 263.298 383.532 263.475C383.66 263.525 383.762 263.792 383.839 264.249C386.004 267.151 393.761 278.485 395.445 311.723C397.155 345.462 400.433 351.112 401.858 349.721C399.146 323.693 398.341 250.948 406.561 250.948C408.271 256.516 408.613 293.017 406.561 311.723C408.984 324.807 414.513 353.312 417.249 362.665C419.985 372.018 421.524 393.007 421.952 402.332V414.441L420.242 439.077H417.249C418.617 418.032 404.708 376.026 397.583 357.654C400.718 380.202 405.962 428.888 401.858 443.252H398.866C399.721 426.55 399.122 388.803 389.888 371.433C390.6 392.589 391.256 435.736 388.177 439.077H386.04C384.187 416.529 379.028 369.93 373.214 363.917V415.694C369.224 403.446 360.645 373.688 358.251 352.643V405.255C355.509 399.577 339.524 398.317 336.5 394.399C334.826 392.229 325.2 382.027 322.396 378.114C306.949 358.74 316.415 336.484 323.679 328.195Z" fill="#5C332D"/>
<path d="M343.069 346.552C343.338 336.495 350.749 315.144 348.957 322.845C346.265 322.845 346.944 350.125 347.62 363.765C344.2 365.101 341.756 361.26 340.962 359.172C337.855 349.249 339.684 336.618 341.563 329.195C341.688 327.534 341.993 326.306 342.544 325.768C342.234 326.715 341.898 327.873 341.563 329.195C341.234 333.542 342.135 340.856 343.069 346.552Z" fill="#7B4E48"/>
<path d="M369.478 363.765C367.084 356.75 365.346 329.943 364.776 317.417C357.935 333.117 363.35 356.264 366.913 365.874L369.478 363.765Z" fill="#7B4E48"/>
<path d="M387.434 352.909C379.91 342.536 376.319 318.802 375.464 308.231C363.493 332.866 385.297 393.829 387.434 392.576C389.144 391.574 382.732 360.146 379.311 344.558C381.306 351.663 386.066 366.204 389.144 367.523C392.223 368.842 395.557 378.929 396.84 383.808C398.55 375.123 389.857 349.29 385.297 337.459L387.434 352.909Z" fill="#7B4E48"/>
<path d="M411.803 362.095C407.015 351.072 404.108 313.52 403.253 296.122C397.695 336.624 407.955 369.611 408.81 372.116C409.494 374.12 415.081 399.118 417.788 411.366C417.788 399.535 416.591 373.118 411.803 362.095Z" fill="#7B4E48"/>
<path d="M116.385 444.77C112.983 442.901 109.735 433.941 107.319 424.955C109.744 439.036 109.119 448.384 108.262 451.869C91.5029 436.503 90.4485 398.979 92.0161 382.137C84.6721 408.22 87.3197 426.347 89.7034 432.637C96.3072 436.462 92.6384 434.561 89.8784 433.079C89.8203 432.939 89.7619 432.791 89.7034 432.637C89.4878 432.512 89.2612 432.381 89.0233 432.244C81.4989 427.901 81.6129 411.227 82.6105 403.432C86.6007 377.405 96.0347 322.093 101.849 309.066C107.663 296.038 106.552 234.046 105.269 204.678C98.4289 178.957 102.419 138.287 105.269 121.168C109.117 86.511 124.08 61.4579 137.333 45.1734C150.587 28.8889 180.513 21.7905 175.81 23.8783C172.048 25.5485 159.137 38.7709 153.152 45.1734L159.565 40.1628C180.428 32.4798 179.943 51.1583 177.093 61.4579C171.963 68.8346 158.368 94.2774 145.029 137.035C128.355 190.481 135.196 252.279 137.333 268.146C139.043 280.839 143.176 338.851 145.029 366.27C141.609 365.268 137.048 348.316 135.196 339.965C133.144 387.064 139.186 412.201 142.464 418.882C141.793 418.358 141.14 417.655 140.505 416.794C128.985 401.191 123.225 333.786 123.225 342.888C123.225 350.57 120.945 369.472 119.805 377.962C113.307 398.004 114.817 430.852 116.385 444.77Z" fill="#7B4E48"/>
<path d="M207.447 12.6044C240.936 7.73296 316.551 4.33688 351.095 29.724C385.639 55.1111 399.12 78.16 401.543 86.511C405.818 96.393 413.086 119.832 407.955 134.529C405.105 124.926 395.044 101.209 377.601 83.1706C387.224 102.656 403.345 146.388 390.854 165.428C385.724 155.685 373.497 134.028 365.631 125.343C372.756 138.983 385.553 168.685 379.739 178.372C375.606 159.861 354.857 117.744 304.922 97.3673C323.942 111.564 361.236 144.801 358.249 164.176C354.683 159.858 348.685 155.352 341.262 150.883C329.576 141.845 301.417 122.998 282.264 119.915C263.111 116.832 225.546 88.0101 209.157 73.9844C201.889 63.2673 190.945 42.167 205.31 43.5032C214.175 44.3279 219.48 45.7251 222.41 46.9685C216.882 43.4106 208.718 38.4897 205.31 37.6575C200.179 36.4048 193.766 30.9767 212.577 32.6469C227.626 33.983 259.32 42.3897 273.286 46.4261C243.929 36.8224 189.662 16.6129 207.447 12.6044Z" fill="#7B4E48"/>
<path d="M343.599 348.562C343.868 338.505 351.28 317.154 349.488 324.855C346.795 324.855 347.474 352.135 348.151 365.775C344.73 367.111 342.287 363.27 341.492 361.182C338.386 351.259 340.214 338.628 342.093 331.205C342.219 329.544 342.524 328.316 343.075 327.778C342.764 328.725 342.428 329.882 342.093 331.205C341.765 335.552 342.666 342.866 343.599 348.562Z" fill="#B88073"/>
<path d="M370.009 365.775C367.615 358.76 365.876 331.953 365.306 319.427C358.466 335.127 363.881 358.273 367.444 367.884L370.009 365.775Z" fill="#B88073"/>
<path d="M387.965 354.919C380.44 344.546 376.849 320.811 375.994 310.241C364.023 334.876 385.827 395.839 387.965 394.586C389.675 393.584 383.262 362.156 379.842 346.568C381.837 353.673 386.597 368.214 389.675 369.533C392.753 370.852 396.088 380.939 397.37 385.817C399.08 377.132 390.387 351.3 385.827 339.469L387.965 354.919Z" fill="#B88073"/>
<path d="M412.334 364.105C407.545 353.081 404.638 315.53 403.783 298.132C398.225 338.634 408.486 371.621 409.341 374.126C410.025 376.13 415.611 401.128 418.319 413.376C418.319 401.545 417.122 375.128 412.334 364.105Z" fill="#B88073"/>
<path d="M111.316 331.022C111.648 328.645 111.95 326.424 112.212 324.437C112.592 324.437 112.191 326.986 111.316 331.022C108.758 349.298 104.373 376.824 101.952 378.302C98.9118 380.157 97.2229 417.641 99.2868 428.297C99.6095 429.256 99.9305 430.131 100.242 430.913C99.8617 430.542 99.5449 429.629 99.2868 428.297C95.4723 416.955 91.4123 393.837 100.242 374.126C103.537 362.157 109.035 341.539 111.316 331.022Z" fill="#B88073"/>
<path d="M116.06 259.299C119.138 278.674 105.657 328.891 98.5317 351.578L108.365 283.1C110.943 268.764 114.553 226.814 108.365 173.701C102.177 120.589 119.182 81.9793 128.458 69.3135C108.792 109.398 112.212 165.35 114.35 174.536C116.06 181.885 116.203 234.107 116.06 259.299Z" fill="#B88073"/>
<path d="M127.603 233.829C123.841 197.752 128.316 172.31 131.023 164.098C121.447 168.774 120.763 200.842 121.618 216.292C119.224 228.985 126.891 279.759 131.023 303.56C131.451 295.348 131.365 269.905 127.603 233.829Z" fill="#B88073"/>
<path d="M356.328 43.4254C369.296 55.1168 396.943 84.8465 403.783 110.234C402.073 92.6964 390.188 54.7828 356.328 43.4254Z" fill="#B88073"/>
<path d="M385.4 144.473C383.005 90.3581 319.704 64.8597 288.352 58.8748C306.137 63.2173 335.094 82.1185 347.35 91.0262C316.91 72.988 301.035 72.0972 296.902 73.9066C353.335 90.9427 379.414 128.049 385.4 144.473Z" fill="#B88073"/>
<path d="M280.656 73.9066C305.168 76.2727 357.44 94.0326 370.436 146.143C362.313 127.492 332.985 86.9342 280.656 73.9066Z" fill="#B88073"/>
<path d="M282.794 110.234C247.224 99.2102 216.671 70.5662 205.84 57.6221C212.253 75.9944 249.02 107.144 278.091 114.827C307.163 122.51 328.682 137.792 335.807 144.473C332.957 137.653 318.364 121.257 282.794 110.234Z" fill="#B88073"/>
<defs>
<filter id="filter0_d_539_51" x="0.1" y="34.1" width="511.8" height="614.406" filterUnits="userSpaceOnUse" color-interpolation-filters="sRGB">
<feFlood flood-opacity="0" result="BackgroundImageFix"/>
<feColorMatrix in="SourceAlpha" type="matrix" values="0 0 0 0 0 0 0 0 0 0 0 0 0 0 0 0 0 0 127 0" result="hardAlpha"/>
<feOffset dx="5" dy="11"/>
<feGaussianBlur stdDeviation="11.45"/>
<feComposite in2="hardAlpha" operator="out"/>
<feColorMatrix type="matrix" values="0 0 0 0 0 0 0 0 0 0 0 0 0 0 0 0 0 0 0.25 0"/>
<feBlend mode="normal" in2="BackgroundImageFix" result="effect1_dropShadow_539_51"/>
<feBlend mode="normal" in="SourceGraphic" in2="effect1_dropShadow_539_51" result="shape"/>
</filter>
</defs>
</svg>
