<svg width="512" height="645" viewBox="0 0 512 645" fill="none" xmlns="http://www.w3.org/2000/svg">
<g filter="url(#filter0_d_539_52)">
<path d="M18 523.047V505.819C18 495.404 20.8105 485.051 27.5331 477.096C57.5643 441.557 111.813 411.609 152.454 393.595C171.161 385.303 184.094 367.187 184.094 346.726C184.094 334.397 179.284 322.617 171.011 313.476C139.131 278.25 117.754 243.043 125.61 141.338C134.5 26.2549 352.528 -12.106 375.454 153.969C386.756 235.841 357.505 287.301 333.471 312.49C323.411 323.034 315.566 336.4 315.566 350.973C315.566 368.868 326.992 384.617 343.402 391.754C400.758 416.698 445.446 451.691 470.109 475.395C479.454 484.376 484 496.994 484 509.954V516.948C484 537.587 472.242 556.641 453.252 564.727C267.873 643.66 114.893 605.061 41.4063 565.212C26.1534 556.941 18 540.398 18 523.047Z" fill="#F3EDFF"/>
</g>
<path d="M311.426 34.3937C318.076 30.2822 340.07 23.6907 348.193 34.3938C342.635 30.1825 327.83 33.9684 311.426 34.3937Z" fill="#F3EDFF"/>
<path d="M233.263 212.596H242.621L243.359 211.456C244.649 209.464 246.861 208.261 249.235 208.261H251.511H253.926C256.72 208.261 259.246 209.922 260.353 212.486L260.401 212.596H269.758" stroke="#2A114B" stroke-width="2" stroke-linecap="round"/>
<path d="M304.317 210.603C304.317 219.885 296.803 227.408 287.537 227.408C278.272 227.408 270.758 219.885 270.758 210.603C270.758 201.321 278.272 193.799 287.537 193.799C296.803 193.799 304.317 201.321 304.317 210.603Z" stroke="black" stroke-width="2"/>
<path d="M232.264 210.603C232.264 219.885 224.75 227.408 215.484 227.408C206.218 227.408 198.705 219.885 198.705 210.603C198.705 201.321 206.218 193.799 215.484 193.799C224.75 193.799 232.264 201.321 232.264 210.603Z" stroke="black" stroke-width="2"/>
<g filter="url(#filter1_di_539_52)">
<path d="M133.166 68.6608C135.159 41.2724 171.373 15.7514 189.23 6.41439C208.126 0.397235 253.766 -5.66142 285.162 18.2412C298.452 14.9214 329.141 12.5145 345.587 29.4455C362.033 46.3766 366.975 67.2084 367.39 75.5079L363.029 91.692C376.526 98.3316 404.766 118.333 409.75 145.224C414.733 172.114 396.876 188.796 387.324 193.776C387.324 201.038 390.812 214.442 404.766 209.96C403.52 218.26 399.907 263.064 377.98 267.546C377.565 278.335 367.639 303.151 331.26 316.098L352.468 271.634C352.468 240.889 370.712 189.118 352.468 165.176L337.489 112.856C333.239 102.24 317.704 83.4717 288.277 87.3201C286.071 87.6086 283.787 88.0241 281.424 88.5797C272.08 83.6923 250.527 76.8499 239.065 88.5797C238.65 95.091 234.455 107.716 221 106.127C210.468 112.741 192.308 114.223 177.395 113.749C174.317 113.651 171.379 113.47 168.673 113.233C161.198 115.029 155.176 133.649 153.1 142.734C143.632 155.681 122.46 223.749 164.935 305.837C130.05 294.384 120.084 253.325 119.461 240.461C100.026 232.991 94.3363 217.015 93.921 209.96C113.357 209.96 113.232 199.171 110.74 193.776C67.384 166.886 108.018 106.631 133.755 79.8652C133.106 76.4237 132.872 72.6929 133.166 68.6608Z" fill="#8D8D8D"/>
</g>
<g filter="url(#filter2_d_539_52)">
<path d="M138.706 63.5059C160.082 18.553 193.688 5.88472 204.35 5.88472C221.371 0.456201 262.484 -5.00976 290.766 16.5546C302.737 13.5595 330.383 11.3881 345.197 26.6628C360.011 41.9375 364.463 60.7315 364.837 68.2191L360.909 82.82C373.067 88.81 393.615 107.583 405.053 129.437C412.241 143.171 413.176 175.246 384.104 190.23C384.104 196.782 387.353 219.533 399.922 215.489C398.8 222.977 396.69 269.995 372.561 262.155C377.586 273.848 364.501 303.133 331.73 314.814L351.395 272.001L354.605 254.448C354.605 226.711 374.376 162.83 351.395 149.115L337.902 101.913C334.074 92.3359 320.08 75.4038 293.572 78.8757C291.585 79.136 289.527 79.5109 287.399 80.0121C278.982 75.6028 259.566 69.4298 249.241 80.0121C248.867 85.8864 245.089 97.2767 232.968 95.8432C223.481 101.81 207.122 103.147 193.688 102.719C190.916 102.631 188.269 102.467 185.832 102.254C179.099 103.874 173.674 120.672 171.804 128.869C154.378 135.859 124.386 227.484 162.648 301.542C131.223 291.209 121.177 249.739 124.598 236.895C107.09 230.157 99.7479 218.429 99.3738 212.064C116.881 212.064 117.009 195.097 114.765 190.23C66.0272 170.536 120.75 82.82 154.378 72.1501C153.793 69.0453 133.705 74.0236 138.706 63.5059Z" fill="#9C9C9C"/>
<path d="M287.399 80.0121C288.334 70.2782 284.256 50.5858 260.464 49.6873C253.917 52.1207 240.824 62.1542 240.824 82.82C240.824 88.6008 237.78 92.8174 232.968 95.8432M287.399 80.0121C300.305 67.8447 319.048 38.1189 290.766 16.5546M287.399 80.0121C278.982 75.6028 259.566 69.4298 249.241 80.0121C248.867 85.8864 245.089 97.2767 232.968 95.8432M287.399 80.0121C289.527 79.5109 291.585 79.136 293.572 78.8757M290.766 16.5546C262.484 -5.00976 221.371 0.456202 204.35 5.88472C193.688 5.88472 160.082 18.553 138.706 63.5059C133.705 74.0236 153.793 69.0453 154.378 72.1501M290.766 16.5546C302.737 13.5595 330.383 11.3881 345.197 26.6628C360.011 41.9375 364.463 60.7315 364.837 68.2191L360.909 82.82C373.067 88.81 393.615 107.583 405.053 129.437C412.241 143.171 413.176 175.246 384.104 190.23C384.104 196.782 387.353 219.533 399.922 215.489C398.8 222.977 396.69 269.995 372.561 262.155C377.586 273.848 364.501 303.133 331.73 314.814L351.395 272.001L354.605 254.448C354.605 226.711 374.376 162.83 351.395 149.115L337.902 101.913C334.074 92.3359 320.08 75.4038 293.572 78.8757M232.968 95.8432C223.481 101.81 207.122 103.147 193.688 102.719C190.916 102.631 188.269 102.467 185.832 102.254M154.378 72.1501C120.75 82.82 66.0272 170.536 114.765 190.23C117.009 195.097 116.881 212.064 99.3738 212.064C99.7479 218.429 107.09 230.157 124.598 236.895C121.177 249.739 131.223 291.209 162.648 301.542C124.386 227.484 154.378 135.859 171.804 128.869C173.674 120.672 179.099 103.874 185.832 102.254M154.378 72.1501C156.455 83.1846 163.254 90.9214 170.225 95.8432M185.832 102.254C184.658 102.151 183.532 102.037 182.465 101.913C179.075 100.926 174.616 98.9432 170.225 95.8432M293.572 78.8757C298.435 74.5747 312.875 67.5452 331.73 73.8348M313.773 34.5248C319.946 30.5938 335.321 24.9781 347.442 33.9632M170.225 95.8432C179.543 97.6794 200.871 97.4207 211.645 81.6968C222.419 65.9728 238.206 52.3079 244.752 47.4409" stroke="#8D8D8D"/>
</g>
<g filter="url(#filter3_i_539_52)">
<path d="M260.257 49.806C284.049 50.7046 288.127 70.397 287.192 80.1309C278.775 75.7216 259.359 69.5486 249.034 80.1309C248.66 86.0052 244.882 97.3954 232.761 95.962C237.573 92.9361 240.617 88.7196 240.617 82.9387C240.617 62.2729 253.71 52.2395 260.257 49.806Z" fill="#797979"/>
</g>
<path d="M188.804 87.1801C169.425 90.185 157.968 79.627 154.097 71.6404C155.425 80.4135 161.646 88.0345 166.564 92.5411C168.934 94.7137 171.973 96.0091 175.174 96.3144C190.457 97.772 202.174 91.6813 208.451 86.4621C210.794 84.514 212.056 81.5152 213.748 78.9813C219.359 70.5806 235.777 55.1431 244.732 47.2374C235.325 50.9557 221.843 62.4487 211.87 72.6265C205.352 79.2784 198.007 85.753 188.804 87.1801Z" fill="#C9C9C9"/>
<path d="M119.231 202.662C116.86 210.13 108.8 214.26 104.504 215.489C115.451 217.814 119.706 208.542 120.264 202.669C120.362 201.636 119.545 201.674 119.231 202.662Z" fill="#F3EDFF"/>
<path d="M331.947 74.209C313.991 60.081 291.902 73.3527 287.484 80.2026L294.325 79.3465C305.013 69.9277 322.256 71.6402 331.947 74.209Z" fill="#F3EDFF"/>
<path d="M349.498 35.0003C335.498 22.0003 313.999 28.5004 309.705 35.1298L315.954 35.0323C323.359 28.2299 341.771 32.638 349.498 35.0003Z" fill="#D9D9D9"/>
<defs>
<filter id="filter0_d_539_52" x="0.1" y="30.1" width="511.8" height="614.406" filterUnits="userSpaceOnUse" color-interpolation-filters="sRGB">
<feFlood flood-opacity="0" result="BackgroundImageFix"/>
<feColorMatrix in="SourceAlpha" type="matrix" values="0 0 0 0 0 0 0 0 0 0 0 0 0 0 0 0 0 0 127 0" result="hardAlpha"/>
<feOffset dx="5" dy="11"/>
<feGaussianBlur stdDeviation="11.45"/>
<feComposite in2="hardAlpha" operator="out"/>
<feColorMatrix type="matrix" values="0 0 0 0 0 0 0 0 0 0 0 0 0 0 0 0 0 0 0.25 0"/>
<feBlend mode="normal" in2="BackgroundImageFix" result="effect1_dropShadow_539_52"/>
<feBlend mode="normal" in="SourceGraphic" in2="effect1_dropShadow_539_52" result="shape"/>
</filter>
<filter id="filter1_di_539_52" x="87.6787" y="1" width="328.932" height="323.098" filterUnits="userSpaceOnUse" color-interpolation-filters="sRGB">
<feFlood flood-opacity="0" result="BackgroundImageFix"/>
<feColorMatrix in="SourceAlpha" type="matrix" values="0 0 0 0 0 0 0 0 0 0 0 0 0 0 0 0 0 0 127 0" result="hardAlpha"/>
<feOffset dy="4"/>
<feGaussianBlur stdDeviation="2"/>
<feComposite in2="hardAlpha" operator="out"/>
<feColorMatrix type="matrix" values="0 0 0 0 0 0 0 0 0 0 0 0 0 0 0 0 0 0 0.25 0"/>
<feBlend mode="normal" in2="BackgroundImageFix" result="effect1_dropShadow_539_52"/>
<feBlend mode="normal" in="SourceGraphic" in2="effect1_dropShadow_539_52" result="shape"/>
<feColorMatrix in="SourceAlpha" type="matrix" values="0 0 0 0 0 0 0 0 0 0 0 0 0 0 0 0 0 0 127 0" result="hardAlpha"/>
<feOffset dx="6"/>
<feGaussianBlur stdDeviation="3.35"/>
<feComposite in2="hardAlpha" operator="arithmetic" k2="-1" k3="1"/>
<feColorMatrix type="matrix" values="0 0 0 0 0 0 0 0 0 0 0 0 0 0 0 0 0 0 0.25 0"/>
<feBlend mode="normal" in2="shape" result="effect2_innerShadow_539_52"/>
</filter>
<filter id="filter2_d_539_52" x="90.9214" y="0.500002" width="322.863" height="323.183" filterUnits="userSpaceOnUse" color-interpolation-filters="sRGB">
<feFlood flood-opacity="0" result="BackgroundImageFix"/>
<feColorMatrix in="SourceAlpha" type="matrix" values="0 0 0 0 0 0 0 0 0 0 0 0 0 0 0 0 0 0 127 0" result="hardAlpha"/>
<feOffset dy="4"/>
<feGaussianBlur stdDeviation="2"/>
<feComposite in2="hardAlpha" operator="out"/>
<feColorMatrix type="matrix" values="0 0 0 0 0 0 0 0 0 0 0 0 0 0 0 0 0 0 0.25 0"/>
<feBlend mode="normal" in2="BackgroundImageFix" result="effect1_dropShadow_539_52"/>
<feBlend mode="normal" in="SourceGraphic" in2="effect1_dropShadow_539_52" result="shape"/>
</filter>
<filter id="filter3_i_539_52" x="232.761" y="49.806" width="54.5515" height="50.2795" filterUnits="userSpaceOnUse" color-interpolation-filters="sRGB">
<feFlood flood-opacity="0" result="BackgroundImageFix"/>
<feBlend mode="normal" in="SourceGraphic" in2="BackgroundImageFix" result="shape"/>
<feColorMatrix in="SourceAlpha" type="matrix" values="0 0 0 0 0 0 0 0 0 0 0 0 0 0 0 0 0 0 127 0" result="hardAlpha"/>
<feOffset dy="4"/>
<feGaussianBlur stdDeviation="2"/>
<feComposite in2="hardAlpha" operator="arithmetic" k2="-1" k3="1"/>
<feColorMatrix type="matrix" values="0 0 0 0 0 0 0 0 0 0 0 0 0 0 0 0 0 0 0.25 0"/>
<feBlend mode="normal" in2="shape" result="effect1_innerShadow_539_52"/>
</filter>
</defs>
</svg>
