<svg width="512" height="615" viewBox="0 0 512 615" fill="none" xmlns="http://www.w3.org/2000/svg">
<g filter="url(#filter0_d_539_46)">
<path d="M18 493.047V475.819C18 465.404 20.8105 455.051 27.5331 447.096C57.5643 411.557 111.813 381.609 152.454 363.595C171.161 355.303 184.094 337.187 184.094 316.726C184.094 304.397 179.284 292.617 171.011 283.476C139.131 248.25 117.754 213.043 125.61 111.338C134.5 -3.74514 352.528 -42.106 375.454 123.969C386.756 205.841 357.505 257.301 333.471 282.49C323.411 293.034 315.566 306.4 315.566 320.973C315.566 338.868 326.992 354.617 343.402 361.754C400.758 386.698 445.446 421.691 470.109 445.395C479.454 454.376 484 466.994 484 479.954V486.948C484 507.587 472.242 526.641 453.252 534.727C267.873 613.66 114.893 575.061 41.4063 535.212C26.1534 526.941 18 510.398 18 493.047Z" fill="#F3EDFF"/>
</g>
<defs>
<filter id="filter0_d_539_46" x="0.1" y="0.100006" width="511.8" height="614.406" filterUnits="userSpaceOnUse" color-interpolation-filters="sRGB">
<feFlood flood-opacity="0" result="BackgroundImageFix"/>
<feColorMatrix in="SourceAlpha" type="matrix" values="0 0 0 0 0 0 0 0 0 0 0 0 0 0 0 0 0 0 127 0" result="hardAlpha"/>
<feOffset dx="5" dy="11"/>
<feGaussianBlur stdDeviation="11.45"/>
<feComposite in2="hardAlpha" operator="out"/>
<feColorMatrix type="matrix" values="0 0 0 0 0 0 0 0 0 0 0 0 0 0 0 0 0 0 0.25 0"/>
<feBlend mode="normal" in2="BackgroundImageFix" result="effect1_dropShadow_539_46"/>
<feBlend mode="normal" in="SourceGraphic" in2="effect1_dropShadow_539_46" result="shape"/>
</filter>
</defs>
</svg>
