<svg width="512" height="643" viewBox="0 0 512 643" fill="none" xmlns="http://www.w3.org/2000/svg">
<g filter="url(#filter0_d_539_50)">
<path d="M18 521.234V504.007C18 493.591 20.8105 483.238 27.5331 475.283C57.5643 439.744 111.813 409.796 152.454 391.782C171.161 383.49 184.094 365.375 184.094 344.913C184.094 332.584 179.284 320.804 171.011 311.663C139.131 276.437 117.754 241.23 125.61 139.525C134.5 24.442 352.528 -13.9188 375.454 152.156C386.756 234.029 357.505 285.489 333.471 310.678C323.411 321.221 315.566 334.587 315.566 349.16C315.566 367.055 326.992 382.804 343.402 389.941C400.758 414.885 445.446 449.878 470.109 473.582C479.454 482.563 484 495.181 484 508.142V515.136C484 535.774 472.242 554.828 453.252 562.914C267.873 641.847 114.893 603.248 41.4063 563.399C26.1534 555.128 18 538.585 18 521.234Z" fill="#F3EDFF"/>
</g>
<path d="M359.864 214.398C359.755 214.512 359.645 214.616 359.537 214.712C359.639 214.572 359.741 214.43 359.843 214.286L348.849 156.569L340.726 154.431C341.395 148.416 333.444 135.872 330.552 130.884C332.003 135.496 334.363 146.558 335.596 152.721L328.328 150.584C326.033 137.47 315.699 121.477 310.203 114.274C313.688 119.675 319.087 140.312 321.488 150.584L298.829 145.881C298.829 133.593 290.676 113.968 285.933 104.276C288.917 111.8 290.905 134.588 291.561 145.881L271.468 143.316C273.469 135.978 272.38 112.054 271.532 100.166C271.734 106.919 267.653 131.379 265.482 143.316H257.359C258.385 139.554 256.932 123.507 256.077 115.954L250.519 143.316L238.976 144.598C233.504 126.813 242.111 106.121 247.099 97.9983C234.786 109.285 230.853 133.768 230.425 144.598L221.447 145.881C218.711 141.777 221.162 127.64 222.73 121.085C219.31 127.241 217.885 140.181 217.6 145.881L199.644 148.019C196.224 138.442 204.204 116.382 208.622 106.549C200.413 114.415 194.086 138.613 191.948 149.729L174.42 152.721C171.702 147.965 180.289 132.692 185.013 125.504C185.024 125.469 185.036 125.433 185.048 125.397C176.182 130.905 168.856 147.038 166.297 154.431L158.174 157.424L147.913 214.712C147.478 213.935 147.05 213.163 146.631 212.397L144.921 244.639C148.341 268.58 176.843 289.386 190.666 296.796C188.272 300.217 174.562 294.801 168.007 291.666C175.531 299.875 178.838 305.632 179.55 307.485C175.673 308.518 171.583 308.419 167.426 307.485C188.167 330.4 185.344 356.016 180.886 364.677C172.621 362.254 151.761 336.033 137.653 331.33C132.95 333.325 123.63 313.213 108.581 301.927C106.871 304.207 101.057 306.373 91.4805 296.796C91.908 299.077 89.5994 300.73 76.9447 289.101C70.1044 282.462 57.4497 263.507 61.5539 240.791C62.7462 234.192 64.5688 228.006 66.6841 222.402C71.85 208.715 78.7615 198.496 82.5025 194.191C88.0603 183.503 99.3469 156.569 100.031 134.338C100.406 122.16 106.117 106.124 113.495 91.158C122.953 71.9718 135.15 54.5446 142.356 49.2607C145.623 46.8648 148.536 44.4134 151.761 41.9135C161.198 34.6 173.314 26.872 204.822 18.9066C204.103 13.3024 205.491 5.5981 209.904 3.94328C216.107 1.61707 228.288 -4.22504 244.532 12.4937C244.803 12.7724 245.075 13.0574 245.348 13.3488L266.965 14.2038C271.259 9.05419 278.229 2.58251 285.576 0.602686C287.559 0.0683319 289.569 -0.138809 291.561 0.0955703C306.097 1.80566 307.379 5.65337 309.089 12.9213C309.025 14.9773 308.88 17.9604 308.645 20.6167C322.189 23.4668 352.013 34.1264 362.958 53.9635C369.355 58.1163 382.436 73.5492 392.884 105.15C395.702 113.671 398.328 123.369 400.58 134.338C403.002 152.294 411.011 191.113 423.666 202.741C430.649 213.857 443.588 240.021 439.484 255.754C434.354 275.42 430.934 284.826 412.978 297.652C411.98 297.937 409.9 298.079 409.558 296.369C409.13 294.231 398.014 310.05 392.457 301.072C385.901 306.202 377.572 341.163 366.97 336.033C362.125 339.881 328.296 357.495 317.694 359.547C313.971 350.273 313.365 326.437 340.726 305.283C335.544 305.146 332.217 303.835 331.748 303.209C330.722 301.841 337.876 295.229 341.581 292.094C321.402 299.96 311.512 297.366 309.09 295.086C342.009 283.116 353.552 264.732 356.117 262.167C359.537 257.037 362.188 241.721 360.82 238.985L363.866 219.415H360.82L359.864 214.398Z" fill="#2D120F"/>
<path d="M147.913 215.044C140.36 182.41 137.225 108.505 185.108 73.9616C232.99 39.4177 264.627 41.8973 274.46 47.4551C297.831 52.1579 347.566 75.5862 359.537 131.677C369.603 178.843 366.267 202.51 361.985 211.475C362.227 211.104 362.47 210.727 362.714 210.341C363.523 209.068 364.345 207.712 365.174 206.281C366.012 204.133 366.995 202.155 368.153 200.406C368.413 200.013 368.682 199.631 368.96 199.262C380.813 175.692 391.619 138.094 379.09 100.896C378.128 98.0408 377.029 95.1885 375.783 92.3451C370.814 81.0102 365.282 71.5023 359.537 63.5642C339.974 36.5318 317.954 27.7052 307.379 26.934C307.943 26.934 308.36 24.1838 308.645 20.9487C322.189 23.7989 352.013 34.4585 362.957 54.2955C369.355 58.4484 382.436 73.8813 392.884 105.482C395.701 114.003 398.328 123.701 400.579 134.67C403.002 152.626 411.011 191.445 423.666 203.073C442.477 239.413 432.216 260.789 430.078 260.362C428.368 260.02 427.086 254.234 426.658 251.384C427.342 276.693 410.982 285.015 402.717 286.013L403.295 276.18L403.434 273.829L403.572 271.477C401.862 294.136 376.211 300.121 374.928 298.839C373.902 297.813 377.351 289.861 379.203 286.013C364.287 302.556 349.716 305.852 340.726 305.615C335.544 305.478 332.217 304.167 331.748 303.541C330.722 302.173 337.876 295.561 341.581 292.426C321.402 300.292 311.512 297.699 309.089 295.418C342.009 283.448 353.552 265.064 356.117 262.499C360.437 259.771 359.074 240.118 361.424 222.312L359.949 214.641C359.81 214.79 359.673 214.924 359.537 215.044C359.665 214.867 359.794 214.688 359.923 214.506L348.849 156.901L340.726 154.763C341.395 148.748 333.444 136.204 330.552 131.216C332.003 135.828 334.363 146.89 335.596 153.053L328.328 150.916C326.033 137.802 315.699 121.809 310.202 114.606C313.688 120.007 319.086 140.644 321.488 150.916L298.829 146.213C298.829 133.925 290.676 114.3 285.933 104.608C288.917 112.132 290.904 134.92 291.561 146.213L271.467 143.648C273.469 136.31 272.38 112.386 271.532 100.498C271.734 107.251 267.652 131.711 265.482 143.648H257.359C258.385 139.886 256.932 123.839 256.077 116.286L250.519 143.648L238.976 144.93C233.503 127.145 242.111 106.453 247.099 98.3304C234.786 109.617 230.853 134.1 230.425 144.93L221.447 146.213C218.711 142.109 221.162 127.972 222.73 121.417C219.31 127.573 217.885 140.513 217.6 146.213L199.644 148.351C196.223 138.774 204.204 116.714 208.622 106.881C200.413 114.747 194.086 138.945 191.948 150.061L174.42 153.053C171.702 148.297 180.288 133.024 185.012 125.837C185.024 125.801 185.036 125.765 185.047 125.729C176.182 131.237 168.856 147.37 166.297 154.763L158.174 157.756L147.913 215.044C147.611 214.505 147.313 213.968 147.018 213.434C147.473 219.938 146.953 229.595 144.921 244.971C148.341 268.912 176.842 289.718 190.666 297.129C188.271 300.549 174.562 295.133 168.007 291.998C175.531 300.207 178.837 305.964 179.55 307.817C175.673 308.85 171.583 308.751 167.426 307.817C149.579 303.805 130.503 284.399 121.834 273.187C133.463 291.998 133.235 300.406 131.667 302.259C119.697 304.396 107.299 284.303 107.299 283.448L106.444 291.143C90.3519 292.484 83.0777 270.659 81.3196 258.923C82.1435 265.336 80.7619 273.598 79.9372 277.035C63.8623 272.589 64.4038 238.982 66.684 222.734C71.8498 209.047 78.7614 198.829 82.5023 194.523C88.0601 183.835 99.3467 156.901 100.031 134.67C100.405 122.492 106.117 106.456 113.494 91.49C120.161 83.2816 120.122 90.635 119.269 95.3377C117.182 105.004 122.986 123.189 126.853 134.306C126.867 134 126.881 133.693 126.896 133.387C115.212 96.1073 138.604 57.0928 151.761 42.2456C161.198 34.932 172.465 27.2041 203.973 19.2386C204.236 21.2957 205.588 23.0698 206.417 24.1579L206.484 24.2461C193.541 27.8379 174.738 36.7201 158.887 51.3029C144.37 64.6577 132.329 82.7937 129.53 106.026C128.384 115.534 127.331 124.49 126.896 133.387C126.881 133.693 126.867 134 126.853 134.306C128.003 137.611 128.981 140.292 129.53 141.938C131.924 149.12 137.51 153.196 137.653 161.176C149.089 117.141 134.322 183.977 135.035 187.683C136.938 192.603 139.042 195.34 140.955 197.76C143.896 201.478 146.389 204.446 147.018 213.434C147.313 213.968 147.611 214.505 147.913 215.044Z" fill="#53302E"/>
<path d="M249.664 18.7197C248.196 16.8588 246.424 14.7572 245.015 13.2533L266.058 14.1084C264.747 15.6816 264.592 17.559 263.846 18.7197C260.1 16.9364 252.83 17.9767 249.664 18.7197Z" fill="#53302E"/>
<path d="M171.349 126.112C169.639 125.428 155.816 153.474 149.118 167.582C148.258 162.519 148.974 150.258 155.308 132.525C158.424 123.805 162.898 113.761 169.212 102.599C188.365 68.7388 230.205 57.4237 248.731 55.9986C259.561 55.2861 288.063 58.5638 315.424 77.3748C342.786 96.1858 351.621 129.105 352.619 143.213C347.008 136.282 328.733 116.846 319.394 107.043C320.819 110.162 321.601 119.642 321.837 124.83C318.417 116.963 305.306 101.031 299.178 94.0482C303.283 100.547 304.309 124.687 304.309 135.945C302.257 123.633 289.203 102.884 282.933 94.0482C286.695 106.703 282.505 126.397 279.94 134.663L270.534 89.7729C269.679 101.886 267.114 125.257 263.694 121.837C259.419 117.562 263.267 96.6133 261.984 96.1858C260.958 95.8438 251.866 119.415 247.448 131.243C243.002 125.086 249.301 99.3209 253.006 87.2078C239.667 99.1784 230.917 115.282 228.21 121.837C226.158 121.153 229.065 107.586 230.775 100.889C224.619 107.387 216.239 131.813 212.819 143.213C202.558 129.191 210.254 107.444 215.384 98.3234C211.28 99.0074 193.153 129.675 184.602 144.923C180.156 136.031 187.88 119.272 192.298 112.004C187.168 109.867 171.349 138.083 169.212 135.945C167.501 134.235 169.924 128.678 171.349 126.112Z" fill="#7B4E48"/>
<path d="M92.8209 190.252C102.399 180.115 105.934 142.665 106.504 125.207L94.5313 173.78C94.9589 182.551 81.2757 200.389 74.8617 211.195C69.7306 219.84 68.4478 238.004 68.4478 246.006C68.7957 232.067 80.8481 202.924 92.8209 190.252Z" fill="#A5706A"/>
<path d="M94.5313 205.88C91.6807 214.469 88.0318 235.024 96.2417 248.54V244.316C98.8073 254.453 104.965 275.15 109.07 276.839C107.502 277.121 103.083 274.643 97.9521 262.478C95.1541 260.565 90.1462 255.859 87.5658 249.596C89.9446 258.987 93.4607 271.197 95.9192 274.359C96.0272 274.484 96.1347 274.607 96.2417 274.727C96.1365 274.623 96.0289 274.5 95.9192 274.359C86.6742 263.654 73.9054 235.606 94.5313 205.88Z" fill="#A5706A"/>
<path d="M121.898 246.006C123.893 255.298 132.759 277.008 152.257 289.51C140.427 285.146 117.793 270.335 121.898 246.006Z" fill="#A5706A"/>
<path d="M346.387 289.933C356.222 281.485 376.234 260.789 377.602 245.583C378.172 257.41 372.728 282.837 346.387 289.933Z" fill="#A5706A"/>
<path d="M402.831 242.627V249.385C405.966 242.908 410.869 225.141 405.396 205.88C410.242 214.75 419.079 235.869 415.659 249.385C412.238 262.901 406.067 271.348 403.409 273.883L403.547 271.559L411.47 248.65C409.425 254.047 405.192 262.019 399.837 262.901C398.412 267.265 394.193 276.586 388.72 278.951C392.568 272.897 400.778 257.157 402.831 242.627Z" fill="#A5706A"/>
<path d="M412.238 193.209C404.712 186.451 397.129 147.311 394.279 128.586C393.566 144.971 395.732 181.848 410.1 198.278C424.467 214.707 429.484 237.224 430.197 246.428C431.907 246.428 430.91 233.757 430.197 227.421C427.346 218.833 419.763 199.967 412.238 193.209Z" fill="#A5706A"/>
<path d="M155.028 130.698C158.144 122.082 162.619 112.159 168.934 101.132C194.59 65.6521 239.773 57.3454 259.157 57.627C192.794 71.1429 162.086 111.972 155.028 130.698Z" fill="#A5706A"/>
<g filter="url(#filter1_d_539_50)">
<path d="M185.108 73.6297C137.225 108.174 140.36 182.078 147.913 214.712C147.478 213.935 147.05 213.163 146.631 212.397C144.323 208.177 142.262 204.111 140.425 200.176C128.206 174.013 125.887 153.693 126.896 133.055C127.331 124.158 128.384 115.202 129.53 105.694C132.329 82.4618 144.37 64.3258 158.887 50.9709C174.738 36.3882 193.541 27.506 206.484 23.9141C205.663 22.8352 205.092 21.0203 204.821 18.9067C204.103 13.3026 205.491 5.59824 209.904 3.94342C216.107 1.61721 228.288 -4.2249 244.532 12.4939C244.803 12.7726 245.074 13.0576 245.347 13.3489C246.757 14.8528 248.196 16.5268 249.664 18.3878C250.491 17.6588 251.481 16.9712 252.656 16.3416C256.356 14.9184 260.9 15.3902 263.846 18.3878C264.592 17.2271 265.654 15.7772 266.965 14.204C271.259 9.05433 278.229 2.58265 285.576 0.602829C287.559 0.0684749 289.569 -0.138666 291.561 0.0957134C306.097 1.8058 307.379 5.65351 309.089 12.9214C309.025 14.9775 308.88 17.9606 308.645 20.6168C308.36 23.8519 307.943 26.6021 307.379 26.6021C317.955 27.3732 339.975 36.1999 359.537 63.2323C365.282 71.1704 370.814 80.6783 375.783 92.0131C377.029 94.8566 378.128 97.7089 379.09 100.564C392 138.892 380.136 177.644 367.877 201.038C367.548 202.063 367.233 202.589 366.97 202.742C365.536 205.388 364.104 207.819 362.714 210.009C362.47 210.395 362.227 210.773 361.985 211.143C361.175 212.839 360.331 214.009 359.537 214.712C360.329 213.617 361.148 212.425 361.985 211.143C366.267 202.178 369.603 178.51 359.537 131.345C347.566 75.2543 297.831 51.826 274.46 47.1232C264.627 41.5654 232.99 39.0858 185.108 73.6297Z" fill="#259CA2"/>
</g>
<path d="M306.282 26.6021C305.142 28.8823 303.289 34.7251 305 39.8553C307.137 46.2682 300.724 52.7162 294.739 52.2535C288.754 51.7908 275.501 42.848 264.812 32.5875C261.962 34.155 257.117 39.8553 247.284 34.2975C242.439 39.5703 230.525 50.1159 221.633 50.1159C212.74 50.1159 209.377 46.4107 208.807 44.5581C207.809 43.5605 206.84 39.4278 210.945 30.8774C210.945 29.3098 210.09 25.9181 206.669 24.892C206.192 24.7489 205.763 24.4089 205.387 23.9141C204.566 22.8352 203.995 21.0203 203.724 18.9067C203.006 13.3026 204.394 5.59824 208.807 3.94342C215.01 1.61721 227.19 -4.2249 243.435 12.4939C243.705 12.7726 243.977 13.0576 244.25 13.3489C245.66 14.8528 247.099 16.5268 248.567 18.3878C249.394 17.6588 250.384 16.9712 251.559 16.3416C255.259 14.9184 259.803 15.3902 262.749 18.3878C263.495 17.2271 264.557 15.7772 265.868 14.204C270.161 9.05433 277.132 2.58265 284.479 0.602829C286.461 0.0684749 288.472 -0.138666 290.464 0.0957134C305 1.80581 306.282 5.65351 307.992 12.9214C307.928 14.9775 307.783 17.9606 307.548 20.6168C307.263 23.8519 306.846 26.6021 306.282 26.6021Z" fill="#3FAEA5"/>
<path d="M209.81 44.558C208.812 43.5605 207.843 39.4278 211.947 30.8773C211.947 29.3097 211.092 25.918 207.672 24.892C207.195 24.7489 206.766 24.4088 206.389 23.9141C205.568 22.8351 204.998 21.0202 204.727 18.9067C204.009 13.3025 205.397 5.59817 209.81 3.94335C216.013 1.61714 228.193 -4.22497 244.437 12.4938C245.702 14.9164 247.816 19.9327 246.149 20.6167C244.482 21.3008 237.189 20.3317 233.751 19.7617C237.741 20.6167 245.38 23.3529 244.012 27.4571C240.915 28.2045 235.308 29.4637 232.114 29.9046C237.231 30.0274 248.664 31.0576 243.157 34.2975C235.889 38.5727 223.49 53.536 209.81 44.558Z" fill="#57C4C7"/>
<path d="M291.466 0.0956419C306.002 1.80573 307.285 5.65344 308.995 12.9213C308.931 14.9774 308.785 17.9605 308.551 20.6167C308.266 23.8518 307.848 26.6021 307.285 26.6021C303.522 27.9701 303.152 31.7323 303.437 33.4424C305.831 46.0971 298.164 48.1207 294.032 47.5507C289.186 47.4082 278.299 45.0711 273.511 36.8626C269.372 29.768 274.304 28.3369 278.479 28.5392C275.469 27.9108 272.867 25.9582 271.801 24.892C272.143 18.7356 285.909 17.1966 292.749 17.1966C284.199 13.4344 274.936 17.3391 271.373 19.7617C268.979 12.9213 279.781 4.13892 285.481 0.602757C287.464 0.0684034 289.474 -0.138737 291.466 0.0956419Z" fill="#57C4C7"/>
<path d="M126.801 133.055C127.236 124.158 128.29 115.202 129.435 105.694C132.234 82.4617 144.276 64.3258 158.792 50.9709C171.792 42.9376 198.485 29.8795 201.259 41.9136C202.114 43.7926 199.036 51.1419 179.883 65.5067C160.73 79.8714 148.531 106.834 144.826 118.519C140.551 131.488 133.112 160.844 137.558 174.525C142.005 188.206 141.259 197.326 140.33 200.176C128.112 174.013 125.792 153.693 126.801 133.055Z" fill="#57C4C7"/>
<path d="M375.688 92.0131C376.935 94.8565 378.034 97.7089 378.995 100.564C391.905 138.892 380.041 177.644 367.783 201.038C367.453 202.063 367.138 202.589 366.875 202.742C367.178 202.183 367.481 201.615 367.783 201.038C368.993 197.276 370.4 186.795 370.131 163.409C369.789 133.654 351.177 96.5733 341.914 81.7525C341.059 77.9048 305.147 53.9635 314.98 43.703C322.847 35.4945 347.9 53.3023 359.443 63.2322C365.187 71.1703 370.72 80.6782 375.688 92.0131Z" fill="#57C4C7"/>
<path d="M258.547 17.6241C250.883 15.8206 248.429 21.9599 248.287 23.9141C249.313 32.7083 262.208 30.8773 263.751 27.4571C265.294 24.0369 265.815 19.3342 258.547 17.6241Z" fill="#57C4C7"/>
<path d="M305.411 13.1914C303.214 11.8768 301.063 12.3978 299.734 13.1268C299.239 13.3983 299.194 14.0594 299.617 14.4324C302.219 16.7233 304.416 15.671 305.597 14.4133C305.948 14.0403 305.85 13.4542 305.411 13.1914Z" fill="white"/>
<path d="M294.18 3.44481C285.287 3.78683 282.494 7.0075 282.209 8.57508C283.919 8.29007 289.05 8.06206 295.89 9.43013C302.73 10.7982 304.44 9.14511 304.44 8.14756C304.725 6.43747 303.072 3.10279 294.18 3.44481Z" fill="white"/>
<path d="M208.56 13.1914C210.757 11.8768 212.908 12.3978 214.236 13.1268C214.731 13.3983 214.777 14.0594 214.353 14.4324C211.752 16.7233 209.555 15.671 208.373 14.4133C208.023 14.0403 208.121 13.4542 208.56 13.1914Z" fill="white"/>
<path d="M219.791 3.44481C228.683 3.78683 231.476 7.0075 231.761 8.57508C230.051 8.29007 224.921 8.06206 218.081 9.43013C211.24 10.7982 209.53 9.14511 209.53 8.14756C209.245 6.43747 210.898 3.10279 219.791 3.44481Z" fill="white"/>
<defs>
<filter id="filter0_d_539_50" x="0.1" y="28.2871" width="511.8" height="614.405" filterUnits="userSpaceOnUse" color-interpolation-filters="sRGB">
<feFlood flood-opacity="0" result="BackgroundImageFix"/>
<feColorMatrix in="SourceAlpha" type="matrix" values="0 0 0 0 0 0 0 0 0 0 0 0 0 0 0 0 0 0 127 0" result="hardAlpha"/>
<feOffset dx="5" dy="11"/>
<feGaussianBlur stdDeviation="11.45"/>
<feComposite in2="hardAlpha" operator="out"/>
<feColorMatrix type="matrix" values="0 0 0 0 0 0 0 0 0 0 0 0 0 0 0 0 0 0 0.25 0"/>
<feBlend mode="normal" in2="BackgroundImageFix" result="effect1_dropShadow_539_50"/>
<feBlend mode="normal" in="SourceGraphic" in2="effect1_dropShadow_539_50" result="shape"/>
</filter>
<filter id="filter1_d_539_50" x="122.685" y="0.000143051" width="265.995" height="222.712" filterUnits="userSpaceOnUse" color-interpolation-filters="sRGB">
<feFlood flood-opacity="0" result="BackgroundImageFix"/>
<feColorMatrix in="SourceAlpha" type="matrix" values="0 0 0 0 0 0 0 0 0 0 0 0 0 0 0 0 0 0 127 0" result="hardAlpha"/>
<feOffset dy="4"/>
<feGaussianBlur stdDeviation="2"/>
<feComposite in2="hardAlpha" operator="out"/>
<feColorMatrix type="matrix" values="0 0 0 0 0 0 0 0 0 0 0 0 0 0 0 0 0 0 0.25 0"/>
<feBlend mode="normal" in2="BackgroundImageFix" result="effect1_dropShadow_539_50"/>
<feBlend mode="normal" in="SourceGraphic" in2="effect1_dropShadow_539_50" result="shape"/>
</filter>
</defs>
</svg>
