<svg width="1186" height="355" viewBox="0 0 1186 355" fill="none" xmlns="http://www.w3.org/2000/svg">
<path d="M187 322.5C196.6 339.3 193.833 351.667 191.5 354.5H33.5C22.5 304.5 32.5 269 37.5 258.5C37.5 248.5 68 207.5 69 207.5C70 207.5 73.5 196 69 201.5C64.5 207 40.5 204 44 197C46.8 191.4 40.8333 186.333 37.5 184.5C32 184.833 21.6 183.2 24 174C26.4 164.8 22.3333 162.5 20 162.5C6 158.1 6.83333 148.667 9 144.5C9 135 6.5 134.5 2 130.5C-1.6 127.3 1.49994 111.5 3.49992 104C-2.90008 95.2 1.16647 85.3333 3.99974 81.5C-3.20026 73.1 3.66641 64.3333 7.99974 61C8.39974 45 19.4997 45.6667 24.9997 48C32.1997 35.6 42.6664 36.1667 46.9997 38C48.1997 26 56.4997 23 60.4997 23C68.8997 6.6 79.6664 9.5 83.9997 13C84.9997 6.5 98.9997 0.5 103.5 5.0001C107.1 8.60018 111 7.16677 112.5 6.00006C115 0.500062 125 -1.49994 129 3.00006C132.2 6.60006 136.333 5.83342 138 5.0001C141.5 3.0001 149.1 0.6001 151.5 7.0001C153.9 13.4001 158.5 14.6667 160.5 14.5C173.7 10.5 178 21.5001 178.5 27.5001C192.5 26.7001 194.666 34.1667 194 38.0001C193.333 43.5001 193.9 54.2 201.5 53C209.1 51.8 209.666 59.1667 209 63C206.666 67.5 202.9 76.7 206.5 77.5C210.1 78.3 209.666 85.5 209 89L207.5 90C207.166 91 206.4 93.2 206 94C205.6 94.8 203.833 94.3334 203 94L201.5 96C199.666 95.3334 196.1 94.4 196.5 96C197 98 188 101 188 103.5C188 105.5 183.666 106 181.5 106C179 104 174.2 100.7 175 103.5C175.8 106.3 172.333 110 170.5 111.5C169.5 113.5 168 117.8 170 119C172 120.2 172.166 123.167 172 124.5C174.333 126 179.9 129.6 183.5 132C188 135 187.5 141 182 142C176.5 143 176.5 145 175 147C173.8 148.6 177.166 151.333 179 152.5C181 157.3 178.166 159.5 176.5 160L179 161.5C180 163.167 181 166.7 177 167.5C173 168.3 172 173.167 172 175.5C171.6 183.9 165.5 186.667 162.5 187L139.5 185.5C136.833 189.833 130.2 201.4 125 213C119.8 224.6 122.833 234.833 125 238.5C141.667 259.5 177.4 305.7 187 322.5Z" fill="#AF94E0"/>
<path d="M558 276.5C544.8 294.1 546.333 333.333 547.5 352H710L704.5 330L651 276.5C649.333 273 647.5 263.8 653.5 255C659.5 246.2 655.333 235.667 652.5 231.5C650.5 223.1 658.667 214.667 663 211.5C681.8 213.9 690.167 212.5 692 211.5C693.333 209.167 695.2 203.7 692 200.5C688.8 197.3 693.333 191.833 696 189.5L690.5 183.5L695 179L690.5 172C690.833 170.833 692.4 168 696 166C699.6 164 693.833 158.167 690.5 155.5L683 145V125C675 119 675.333 111.167 676.5 108C685.3 99.1999 667.667 86 656 81C643.667 76.1667 606.2 71.3 583 86.5C559.8 101.7 546.333 141.667 542 161C534.715 193.5 546.833 238 554 254L566.5 255L558 276.5Z" fill="#AF94E0"/>
<path d="M1186 352.5H1038.5C1037 310 1043 310.5 1045.5 296.5C1047.5 285.3 1064.33 266.167 1072.5 258C1075.17 253.667 1079 243.7 1081 230.5C1083 217.3 1064.83 189.833 1055 178L1053.5 180.5C1044.5 172.5 1040.5 155.5 1041.5 139.5C1042.3 126.7 1050.83 117.5 1055 114.5C1056.2 109.7 1067.17 104.833 1072.5 103C1074.5 93 1084.67 92.1666 1089.5 93C1096.3 83.4 1111.33 87.6666 1118 91C1127.5 91.5 1166 113 1169 114.5C1172 116 1171 123 1170.5 125C1170.1 126.6 1165.67 124.333 1163.5 123C1161.83 123.333 1159.7 125.3 1164.5 130.5C1170.5 137 1168.5 148 1168 151.5C1167.6 154.3 1169.5 154.667 1170.5 154.5C1170.67 153.667 1171 151.7 1171 150.5C1171 149.3 1172.33 149.667 1173 150L1175.5 164C1178.67 166.667 1185 172.9 1185 176.5C1185 180.1 1178.67 182 1175.5 182.5V187.956C1175.93 188.044 1176.7 188.211 1178 188.5C1181.6 189.3 1181.17 192.833 1180.5 194.5C1182.9 197.3 1182.5 200 1182 201C1179.33 201.5 1174.8 203.7 1178 208.5C1181.2 213.3 1181.33 217.833 1181 219.5C1181.4 223.5 1164.5 224.5 1156 224.5C1144 221.7 1140.67 243.333 1140.5 254.5C1144 266.5 1154.2 295.3 1167 314.5C1179.8 333.7 1185 347.833 1186 352.5Z" fill="#AF94E0"/>
<path d="M209 203L200 201.5C198.333 198.833 200 189.6 220 174C220.5 172.833 221.5 168.7 221.5 161.5C224 152.833 235.2 133.1 260 123.5C278 119.167 318.7 117.1 337.5 143.5C346 151.667 359.6 175.5 346 205.5C352 206.167 363.4 210.9 361 224.5C358.6 238.1 347.333 241.167 342 241L340.397 244.474C339.528 246.356 337.75 247.656 335.693 247.913L323 249.5C353 262.5 388.5 305.1 396.5 353.5C401.167 329.667 416.5 272.4 440.5 234L432 203C430.333 201.167 424.5 198.2 414.5 201C404.5 203.8 398 202.833 396 202C394.667 201.167 392.1 197 392.5 187L388.5 180.5V177.5L386 175L388.5 169.5V164C385.667 164.333 379.3 163.4 376.5 157C381 151.833 389.7 140.3 388.5 135.5C385.667 126.667 382.5 105.4 392.5 90.9999C402.5 76.5999 422.667 67.9999 431.5 65.4999C447.167 63.1666 480.9 62.9999 490.5 80.9999C499.5 92.3333 511.8 123 489 155C486.333 158.333 481.8 168 485 180C489 195 488.5 209 504.5 225C517.3 237.8 528.833 266.333 531.5 277.5L533.5 352L396.5 353.5H231.5C242.667 335.5 262.659 301 256.5 288.5C250.341 276 234.5 252.9 214.5 248.5C211.5 249 206 247.7 208 238.5C210 229.3 208.167 228.333 207 229V222.5C207.667 221.667 209.4 220.5 211 222.5C213 225 208 215.5 207 216.5C206 217.5 207 212.5 209 212V203Z" fill="#AF94E0"/>
<path d="M704 330C702.5 325 704.8 307 722 293C739.2 279 760.167 245.833 770.5 228.5L767.5 195L748.5 193.5C742.5 193.5 730.1 191.3 728.5 182.5C729.333 179.333 731.5 172.9 733.5 172.5C735.5 172.1 730.333 170 727.5 169C727.333 167.5 728 164.2 732 163C730 161.833 725.9 159.7 725.5 160.5C725 161.5 726.5 157 730 155C732.8 153.4 725.833 150 722 148.5C719.5 147 718.3 141.8 733.5 133C732.667 123.833 733.1 102.7 741.5 91.5C742.333 89 742.6 82.9 737 78.5C731.4 74.1 739.667 73.6667 744.5 74C744.667 71.3334 746.5 66.7 752.5 69.5C753 66.1667 755.8 59.6 763 60C761 57.3333 761.6 52.5 780 54.5C786.5 52.1666 800.3 48.8999 803.5 54.5C806.667 52.8333 814 51.6 818 60C819.333 60 822 59.2999 822 56.4999C822 53.6999 825.667 54 827.5 54.5C832.333 50.5 843.3 45.2999 848.5 56.4999C847.535 58.1078 845.536 60.2947 843.169 60.4804C846.474 62.4896 849.606 65.6284 848.5 69.5C854 70.8333 864.7 75.4 863.5 83C862.3 90.6 854.667 91.1667 851 90.5C857.667 97.6667 867.8 112.2 855 113C860 125 864.8 151.7 844 162.5C838.5 163.167 826.5 166.7 822.5 175.5C818.5 184.3 827.5 208.167 832.5 219C841.5 233 859.7 264.1 860.5 276.5C861.5 292 870 322 858.5 352H709.5L704 330Z" fill="#AF94E0"/>
<path d="M950 75V88C914.4 86 908.167 94.1667 909.5 98.5C897.5 102.5 894.5 109.167 894.5 112C890.333 114 881 120.6 877 131C873 141.4 876 149.333 878 152L877 171C874.833 172.833 869.6 177.1 866 179.5C861.5 182.5 864 190 866.5 190C869 190 873.5 198 869 198C865.4 198 865.5 202.667 866 205C867.5 206.167 870.1 208.7 868.5 209.5C866.9 210.3 866.5 211.833 866.5 212.5C865.7 214.5 868.833 215.333 870.5 215.5C870.333 215.833 870.5 218.7 872.5 227.5C874.5 236.3 889.333 234.5 896.5 232.5V248.5C894.667 257.5 889 280.2 881 299C873 317.8 868.667 342.167 867.5 352H872.5C875 342.5 881.2 320.7 886 309.5C890.8 298.3 898.333 269.833 901.5 257L904 229.5L913 226.5C920.6 232.5 928.833 256.667 932 268C931.333 277.5 928.2 299.3 921 310.5C913.8 321.7 906.333 342.833 903.5 352H905.5H1039C1043.67 335.333 1051.5 300.6 1045.5 295C1039.5 289.4 1021.67 238.333 1013.5 213.5C1014.7 205.1 1012.33 201.667 1011 201C1011.8 193 1009.33 188 1008 186.5C1010.8 182.1 1009.17 172.333 1008 168C1004 165.6 1003 157.667 1003 154C1017 156 1020.83 145.833 1021 140.5C1041.4 144.9 1045.17 136 1044.5 131C1054.5 119.8 1048.67 102 1044.5 94.5C1026.5 61.3 1007 54.3333 999.5 55C991.5 50.6 979.5 59.5 974.5 64.5C963.7 61.7 958.667 69 957.5 73C955.9 70.6 951.833 73.3333 950 75Z" fill="#AF94E0"/>
<path d="M1006.5 191.203L1001 196.203C1001 236.603 1014 260.703 1020.5 267.703C1014.1 258.503 1008.5 212.87 1006.5 191.203Z" fill="white"/>
<path d="M989.5 204.703C978.7 205.503 975.333 201.37 975 199.203V217.203C979.8 234.803 993.667 242.536 1000 244.203C996 234.203 995.333 213.703 995.5 204.703H989.5Z" fill="white"/>
<path d="M980.5 188.703L978.5 185.203L989.5 172.703C991.5 171.703 995.2 171.003 994 176.203C992.8 181.403 984.5 186.703 980.5 188.703Z" fill="white"/>
</svg>
