<svg width="473" height="747" viewBox="0 0 473 747" fill="none" xmlns="http://www.w3.org/2000/svg">
<g filter="url(#filter0_d_84_131)">
<path d="M86.468 697.317C76.3036 692.242 52.9256 682.725 40.7284 685.263C18.875 689.323 12.5646 672.997 12.1411 664.327L10.8917 614.418C10.8777 613.857 10.7989 613.31 10.6527 612.768C6.84229 598.636 0.25693 571.324 1.06858 562.983C1.16193 562.024 1.29153 561.058 1.2311 560.096C0.301092 545.294 3.99922 514.88 26.1168 500.646C36.9411 493.679 44.1128 489.47 48.7096 487.036C52.4317 485.065 58.8756 481.798 62.5721 479.78C72.91 474.134 92.6011 467.175 121.408 466.387C122.268 466.363 123.115 466.324 123.949 466.269C134.325 453.408 156.602 425.657 162.7 417.536C165.703 413.538 168.607 412.69 170.946 413.13L166.512 322.373C163.336 302.917 156.729 264.006 155.712 264.006C154.637 264.006 154.481 248.56 159.455 248.422C154.505 244.769 151.972 236.976 151.265 232.919C149.741 252.713 122.648 271.619 109.292 278.598C107.483 284.989 105.769 290.79 104.255 295.727C103.74 296.957 103.21 298.405 102.71 300.016C103.195 300.268 103.709 300.53 104.255 300.802C113.53 305.433 117.868 315.347 119.2 320.903C119.431 321.867 119.785 322.811 120.36 323.618C131.144 338.772 139.817 332.171 142.867 326.814C138.642 317.406 135.679 307.844 137.289 303.34C140.466 294.458 147.454 288.748 146.819 304.609C146.31 317.297 143.972 324.699 142.867 326.814C146.972 335.957 152.268 344.954 155.712 349.019C162.7 357.266 166.512 364.879 159.524 370.589C152.536 376.299 123.313 350.922 108.067 336.965C97.5196 327.309 99.5131 310.316 102.71 300.016C91.9216 294.409 95.9422 293.786 94.7262 289.79C93.7098 286.451 104.014 280.937 109.292 278.598C119.884 241.19 133.774 183.569 130.301 160.595C126.236 133.695 141.313 105.823 149.36 95.2492C169.477 69.6608 213.776 16.9613 230.039 10.8709C250.368 3.2578 270.061 -6.89298 325.33 10.8709C369.545 25.082 392.034 65.4313 397.751 83.8296C401.775 99.9016 407.026 136.106 395.845 152.347C385.529 167.333 390.284 182.39 394.74 189.446C395.753 173.864 399.103 149.791 406.036 150.925C407.882 151.226 408.587 153.403 408.38 155.262C407.886 159.701 406.231 167.584 402.074 177.761C401.741 178.577 401.555 179.44 401.526 180.321C401.296 187.291 400.371 197.822 398.188 203.085C396.994 205.965 394.584 204.092 394.598 200.975L394.643 191.047C394.618 191.478 394.596 191.902 394.575 192.316L392.034 236.091C390.128 252.163 381.869 289.763 364.082 311.588C346.294 333.412 350.047 349.756 354.146 355.201C354.282 355.254 354.417 355.308 354.553 355.363C394.702 371.604 414.48 395.966 419.351 406.117C427.609 419.228 447.176 471.97 459.373 578.045C465.514 606.383 471.824 665.596 447.938 675.747C425.003 685.493 399.062 720.195 387.659 738.294C386.778 739.693 385.462 740.796 383.825 741.03C380.291 741.535 375.375 741.044 372.976 736.651C369.164 729.673 367.894 629.434 360.906 628.799C355.342 628.294 334.637 512.553 324.837 453.911C324.74 453.334 324.581 452.8 324.338 452.269C318.554 439.632 303.635 417.558 287.214 424.515C291.039 426.278 286.824 443.145 281.197 461.946L308.813 605.326L308.985 606.17C320.151 635.918 340.958 695.921 334.859 697.951C328.761 699.982 324.791 686.955 323.569 680.188C319.771 686 307.383 686.137 300.555 685.263C289.097 683.654 267.497 681.5 259.559 683.634C257.513 684.184 255.507 685.472 253.42 685.831L238.298 688.435C233.639 689.915 222.162 691.353 213.522 685.263C204.883 679.172 212.57 653.331 217.493 641.172C214.843 638.937 208.803 633.993 198.911 626.262C187.703 617.502 182.998 595.989 181.883 585.098C181.792 584.207 181.567 583.336 181.104 582.57C179.151 579.341 175.574 575.808 172.865 581.218C170.78 585.382 169.368 589.784 168.548 592.963C167.989 595.132 167.12 597.605 166.852 599.829C165.239 613.23 166.557 662.931 167.648 691.917C167.731 694.123 166.776 696.247 165.022 697.588C142.256 715.001 127.413 713.392 121.241 709.474C120.021 708.7 119.376 707.339 119.102 705.92C114.101 679.994 99.5503 649.816 92.7219 637.681C93.1263 640.13 93.33 642.647 93.4116 644.605C93.4649 645.885 93.8064 647.133 94.4575 648.237C102.404 661.71 114.888 687.333 108.067 694.145C100.952 701.25 90.7031 699.22 86.468 697.317Z" fill="white"/>
<path d="M88.0259 626.262C89.3314 628.486 90.3782 630.265 90.9149 631.337C91.7522 633.009 92.3309 635.313 92.7219 637.681M88.0259 626.262C83.1503 617.956 74.6662 603.45 75.6684 596.444C75.8801 593.695 76.8118 583.375 78.8447 564.088C80.8776 544.802 85.8126 597.501 88.0259 626.262ZM92.7219 637.681C93.1263 640.13 93.33 642.647 93.4116 644.605C93.4649 645.885 93.8064 647.133 94.4575 648.237C102.404 661.71 114.888 687.333 108.067 694.145C100.952 701.25 90.7031 699.22 86.468 697.317C76.3036 692.242 52.9256 682.725 40.7284 685.263C18.875 689.323 12.5646 672.997 12.1411 664.327L10.8917 614.418C10.8777 613.857 10.7989 613.31 10.6527 612.768C6.84229 598.636 0.25693 571.324 1.06858 562.983C1.16193 562.024 1.29153 561.058 1.2311 560.096C0.301092 545.294 3.99922 514.88 26.1168 500.646C36.9411 493.679 44.1128 489.47 48.7096 487.036C52.4317 485.065 58.8756 481.798 62.5721 479.78C72.91 474.134 92.6011 467.175 121.408 466.387C122.268 466.363 123.115 466.324 123.949 466.269M92.7219 637.681C99.5503 649.816 114.101 679.994 119.102 705.92C119.376 707.339 120.021 708.7 121.241 709.474C127.413 713.392 142.256 715.001 165.022 697.588C166.776 696.247 167.731 694.123 167.648 691.917C166.557 662.931 165.239 613.23 166.852 599.829C167.12 597.605 167.989 595.132 168.548 592.963C169.368 589.784 170.78 585.382 172.865 581.218C175.574 575.808 179.151 579.341 181.104 582.57C181.567 583.336 181.792 584.207 181.883 585.098C182.998 595.989 187.703 617.502 198.911 626.262C208.803 633.993 214.843 638.937 217.493 641.172M218.605 642.122C230.887 647.621 257.61 658.237 266.25 656.714C275.607 655.065 312.145 661.035 322.154 670.912M218.605 642.122C218.344 641.895 217.975 641.578 217.493 641.172M218.605 642.122C229.939 614.654 249.363 566.354 259.556 537.442M217.493 641.172C212.57 653.331 204.883 679.172 213.522 685.263C222.162 691.353 233.639 689.915 238.298 688.435L253.42 685.831C255.507 685.472 257.513 684.184 259.559 683.634C267.497 681.5 289.097 683.654 300.555 685.263C307.383 686.137 319.771 686 323.569 680.188M287.214 424.515C303.635 417.558 318.554 439.632 324.338 452.269C324.581 452.8 324.74 453.334 324.837 453.911C334.637 512.553 355.342 628.294 360.906 628.799C367.894 629.434 369.164 729.673 372.976 736.651C375.375 741.044 380.291 741.535 383.825 741.03C385.462 740.796 386.778 739.693 387.659 738.294C399.062 720.195 425.003 685.493 447.938 675.747C471.824 665.596 465.514 606.383 459.373 578.045C447.176 471.97 427.609 419.228 419.351 406.117C414.48 395.966 394.702 371.604 354.553 355.363C354.417 355.308 354.282 355.254 354.146 355.201M287.214 424.515C291.039 426.278 286.824 443.145 281.197 461.946M287.214 424.515C283.202 423.669 276.383 429.971 281.197 461.946M287.214 424.515C278.978 420.719 304.229 335.524 354.146 355.201M281.197 461.946C274.673 483.74 266.25 508.132 266.25 514.603C266.25 517.364 263.646 525.843 259.556 537.442M281.197 461.946L308.813 605.326L308.985 606.17M322.154 670.912C323.698 672.435 324.61 674.051 324.695 675.747C324.783 677.504 324.364 678.97 323.569 680.188M322.154 670.912L308.985 606.17M323.569 680.188C324.791 686.955 328.761 699.982 334.859 697.951C340.958 695.921 320.151 635.918 308.985 606.17M308.985 606.17C302.516 580.454 286.27 560.633 278.956 553.937L259.556 537.442M259.556 537.442C253.953 528.983 244.143 507.498 249.733 489.226C254.143 474.812 257.12 459.45 258.645 449.869C259.214 446.294 256.812 442.906 253.198 443.129C250.939 443.269 248.458 443.704 245.921 444.569M245.921 444.569C238.768 447.007 231.174 452.859 226.863 465.118C219.623 485.708 201.724 500.852 192.831 506.435C192.231 506.811 191.685 507.251 191.223 507.787C182.09 518.405 168.383 542.751 181.759 561.55C194.951 580.093 219.378 556.727 231.217 541.177C232.119 539.993 232.575 538.547 232.579 537.059C232.64 511.283 235.336 460.136 245.921 444.569ZM245.921 444.569C249.501 426.778 266.311 384.272 304.971 355.849C305.41 355.526 305.818 355.158 306.159 354.733C311.324 348.299 319.875 331.702 316.437 311.588C312.879 290.779 332.318 269.504 342.483 261.468M342.483 261.468C346.506 262.103 355.442 261.976 359 256.393C362.173 251.414 364.907 241.355 366.213 235.487C366.494 234.223 367.092 233.06 367.947 232.088C373.048 226.287 380.582 216.016 380.352 209.567C380.304 208.217 379.391 207.099 378.253 206.372C373.82 203.541 371.637 203.804 371.07 204.37M342.483 261.468C348.101 252.405 346.767 251.263 344.81 252.034C344.075 252.324 343.509 252.896 343.019 253.516C332.778 266.458 312.086 291.368 305.637 294.458C299.03 297.624 291.449 293.139 288.484 290.5M371.07 204.37C367.227 208.177 360.069 218.327 362.176 228.478M371.07 204.37C374.246 184.703 379.963 143.212 377.422 134.583C374.967 126.247 376.268 100.658 377.314 87.6829C377.384 86.8115 377.298 85.9379 377.036 85.1039C372.627 71.0852 360.086 43.2055 341.847 34.3446C323.686 25.5211 305.643 27.4289 298.135 29.6654C297.628 29.8165 297.114 29.9291 296.587 29.9776C287.473 30.8152 270.697 31.8752 270.697 29.9036M362.176 228.478C364.81 241.167 348.2 253.221 348.2 248.78C348.2 244.339 357.729 229.113 362.176 228.478ZM362.176 228.478C356.579 224.672 362.176 206.238 366.623 202.467C370.181 199.45 369.376 185.561 368.529 178.993M123.949 466.269C134.325 453.408 156.602 425.657 162.7 417.536C165.703 413.538 168.607 412.69 170.946 413.13M123.949 466.269C130.513 473.498 145.929 487.45 155.077 485.42C163.671 483.512 169.199 473.245 171.242 467.45C171.489 466.75 171.587 466.009 171.573 465.267L170.946 431.494M123.949 466.269C151.977 464.425 164.917 445.233 170.946 431.494M170.946 431.494C174.402 423.619 175.587 417.536 176.041 417.536C176.811 417.536 174.547 413.807 170.946 413.13M170.946 413.13L166.512 322.373C163.336 302.917 156.729 264.006 155.712 264.006C154.442 264.006 154.454 242.435 162.7 250.049M162.7 250.049C170.946 257.662 160.795 291.286 191.288 298.899M162.7 250.049C155.585 248.018 152.113 237.783 151.265 232.919M162.7 250.049C169.815 257.364 193.193 259.441 203.993 259.565C215.407 259.142 239.766 260.072 245.89 267.178M191.288 298.899C221.781 306.512 252.274 306.512 255.45 303.34C258.626 300.168 256.721 293.824 246.556 293.189C238.332 292.676 203.907 289.255 189.382 285.616M191.288 298.899C191.711 295.753 191.923 288.693 189.382 285.616M191.288 298.899C192.135 307.358 192.304 327.575 186.205 340.771C178.582 357.266 176.041 371.858 176.041 382.009C176.041 388.602 182.742 390.065 187.983 389.929C190.084 389.875 191.88 388.566 192.972 386.77C202.975 370.313 224.621 342.435 244.768 340.842C245.939 340.75 247.097 340.475 248.127 339.911L304.098 309.258C305.108 308.705 305.984 307.92 306.536 306.909C309.38 301.696 311.492 293.125 301.825 291.286C298.058 290.569 293.43 290.466 288.484 290.5M189.382 285.616C185.955 284.757 183.635 283.886 183.029 283.039C180.072 278.904 163.348 274.769 173.36 264.49C174.928 262.88 177.358 262.545 178.928 264.154C181.795 267.092 185.799 273.472 189.382 285.616ZM251.482 215.155C249.58 218.198 243.794 218.7 239.568 218.327C222.839 216.001 191.288 213.633 198.911 222.768C206.22 231.528 233.579 239.431 247.954 242.677C249.125 242.942 250.222 243.482 251.082 244.319C259.952 252.943 255.854 258.194 250.622 260.701C248.239 261.843 246.096 263.723 245.93 266.36C245.913 266.628 245.9 266.901 245.89 267.178M251.482 215.155C252.821 213.013 252.236 209.612 247.827 204.37C239.227 194.146 246.273 193.396 253.544 194.818M251.482 215.155C258.949 215.155 276.414 222.768 281.496 215.155C281.901 214.548 282.091 213.911 282.095 213.252M251.482 215.155C243.276 214.521 226.228 212.744 223.687 210.714C220.51 208.177 208.44 195.488 211.616 194.219M211.616 194.219C207.593 193.796 201.96 191.935 211.616 187.875C220.385 184.188 231.913 175.687 237.922 170.83C239.003 169.957 240.304 169.387 241.692 169.296C247.337 168.924 256.256 169.129 261.168 171.878M211.616 194.219C214.529 193.056 222.249 187.625 235.757 187.709M277.049 206.238C271.896 202.169 263.921 198.286 258.626 196.123C257.063 195.63 255.297 195.161 253.544 194.818M277.049 206.238C277.896 205.192 277.812 200.056 270.697 187.875C264.188 176.733 249.742 181.728 241.653 186.546C240.276 187.366 238.697 187.788 237.096 187.735C236.643 187.721 236.197 187.712 235.757 187.709M277.049 206.238C280.061 208.615 282.109 211.055 282.095 213.252M240.839 187.875L253.544 194.818M263.073 173.283C268.791 178.993 278.955 172.649 290.39 204.37C299.538 229.747 288.672 220.865 282.095 213.252M263.073 173.283C262.543 172.754 261.9 172.288 261.168 171.878M263.073 173.283C265.502 171.897 254.38 165.413 251.482 163.133M235.757 187.709C233.004 184.713 234.232 177.351 261.168 171.878M245.286 155.519C247.638 157.13 248.584 160.852 251.482 163.133M245.286 155.519L251.482 163.133M245.286 155.519C239.089 147.906 245.286 142.831 245.286 139.024C245.286 137.939 246.37 136.391 248.125 134.583M245.286 155.519C246.345 157 249.479 157.423 253.544 147.272C257.61 137.121 260.321 147.695 261.168 154.251C261.263 156.218 262.913 159.577 268.4 159.645C270.558 159.672 272.336 158.168 273.613 156.429C275.538 153.806 278.305 151.253 280.861 152.347C282.791 153.173 283.811 156.029 284.307 159.11C284.934 163.009 280.791 166.493 278.176 163.534C277.49 162.758 277.049 161.79 277.049 160.595C277.049 155.519 270.697 163.133 273.873 166.305C277.049 169.477 279.518 167.573 282.095 173.283C283.783 177.022 286.988 175.288 289.141 173.235C290.017 172.4 290.496 171.254 290.668 170.056C291.673 163.043 292.714 150.986 290.39 147.272C287.214 142.197 286.578 142.831 277.049 140.928C274.026 140.324 271.901 139.434 270.439 138.487C267.907 136.848 265.592 133.902 262.631 133.327C257.764 132.381 251.578 132.035 248.125 134.583M245.89 267.178C245.691 272.933 247.136 280.699 253.544 285.616C260.906 291.265 274.466 290.668 286.578 290.519M245.89 267.178L285.308 289.79M286.578 290.519C287.218 290.511 287.854 290.505 288.484 290.5M286.578 290.519L285.308 289.79M285.308 289.79C288.382 284.748 297.404 275.656 309.497 278.294C310.31 278.471 311.157 278.599 311.938 278.311C314.711 277.288 318.937 273.412 320.248 263.371C321.698 252.267 332.461 245.641 338.428 243.383C339.01 243.163 339.576 242.905 340.063 242.519C343.36 239.911 346.369 234.632 337.955 229.742C336.422 228.852 334.562 228.884 332.792 228.982C328.793 229.204 323.601 227.249 322.789 218.327C321.817 207.651 335.095 200.377 342.739 197.727C343.411 197.494 344.112 197.406 344.82 197.331C349.806 196.802 360.042 192.648 368.529 178.993M368.529 178.993C367.893 188.075 367.258 200.789 369.799 178.993C372.34 157.198 370.011 140.305 368.529 134.583M354.146 355.201C350.047 349.756 346.294 333.412 364.082 311.588C381.869 289.763 390.128 252.163 392.034 236.091L394.575 192.316C394.596 191.902 394.618 191.478 394.643 191.047M394.643 191.047C395.523 175.576 398.861 149.751 406.036 150.925C407.882 151.226 408.587 153.403 408.38 155.262C407.886 159.701 406.231 167.584 402.074 177.761C401.741 178.577 401.555 179.44 401.526 180.321C401.296 187.291 400.371 197.822 398.188 203.085C396.994 205.965 394.584 204.092 394.598 200.975L394.643 191.047ZM395.845 191.047C391.187 184.914 384.665 168.589 395.845 152.347C407.026 136.106 401.775 99.9016 397.751 83.8296C392.034 65.4313 369.545 25.082 325.33 10.8709C270.061 -6.89298 250.368 3.2578 230.039 10.8709C213.776 16.9613 169.477 69.6608 149.36 95.2492C141.313 105.823 126.236 133.695 130.301 160.595C133.774 183.569 119.884 241.19 109.292 278.598M142.867 326.814C146.972 335.957 152.268 344.954 155.712 349.019C162.7 357.266 166.512 364.879 159.524 370.589C152.536 376.299 123.313 350.922 108.067 336.965C95.8697 325.799 100.444 304.82 104.255 295.727C105.769 290.79 107.483 284.989 109.292 278.598M142.867 326.814C138.642 317.406 135.679 307.844 137.289 303.34C140.466 294.458 147.454 288.748 146.819 304.609C146.31 317.297 143.972 324.699 142.867 326.814ZM142.867 326.814C139.817 332.171 131.144 338.772 120.36 323.618C119.785 322.811 119.431 321.867 119.2 320.903C117.868 315.347 113.53 305.433 104.255 300.802C91.5499 294.458 95.9968 293.965 94.7262 289.79C93.7098 286.451 104.014 280.937 109.292 278.598M109.292 278.598C122.648 271.619 149.741 252.713 151.265 232.919M151.265 232.919C153.171 208.177 149.36 194.58 158.889 171.878C159.414 170.626 159.909 169.402 160.373 168.208M198.911 102.228C181.405 106.598 171.034 126.031 167.574 136.408C167.277 137.298 167.213 138.231 167.225 139.169C167.284 143.712 165.967 153.837 160.373 168.208M160.373 168.208C158.396 158.997 157.364 137.6 169.053 125.702C180.551 113.997 199.547 80.4178 208.026 64.3168C208.306 63.7844 208.506 63.2339 208.645 62.6484C210.44 55.0744 214.255 42.2014 216.699 45.1298C219.875 48.9363 204.628 64.7969 213.522 69.8723M213.522 69.8723C211.193 71.7756 209.456 76.4703 221.145 80.0231M213.522 69.8723C214.566 68.6903 209.255 71.9128 224.957 70.3078M221.145 80.0231C211.791 84.2935 207.047 87.6656 204.5 90.6591C200.955 94.8267 207.09 100.89 212.514 100.164C212.849 100.119 213.185 100.075 213.522 100.032M221.145 80.0231C224.563 81.0619 227.425 81.2676 230.039 81.2491M218.604 99.4638C228.769 92.8932 245.286 97.7869 253.544 104.766C261.013 111.077 253.287 118.425 251.74 115.551M218.604 99.4638C216.915 99.6228 215.207 99.8163 213.522 100.032M218.604 99.4638C220.784 99.2585 222.931 99.1106 224.957 99.0461M200.181 103.497C200.441 107.027 209.667 113.942 243.38 115.331M251.74 115.551C251.577 115.247 251.482 114.828 251.482 114.282C251.482 110.494 247.637 108.103 243.38 105.44M251.74 115.551C248.799 115.514 246.015 115.439 243.38 115.331M213.522 100.032C211.193 102.244 209.965 106.796 223.687 107.303C224.119 107.319 224.542 107.34 224.957 107.365M243.38 115.331C242.9 113.933 241.045 111.703 237.027 109.942M224.957 99.0461C230.534 98.8685 235.185 99.3239 237.027 100.959C238.952 102.668 241.219 104.089 243.38 105.44M224.957 99.0461C222.204 100.359 218.35 103.861 224.957 107.365M224.957 107.365C230.252 107.68 234.182 108.694 237.027 109.942M237.027 109.942C239.992 109.512 245.413 108.01 243.38 105.44M230.039 81.2491C238.602 81.1888 244.513 78.7244 258.626 95.2492C268.701 107.045 271.632 103.307 271.801 96.5181M230.039 81.2491C244.107 85.1675 272.155 93.707 271.801 96.5181M271.801 96.5181C271.862 94.0971 271.571 91.2882 271.128 88.6574C270.877 87.1654 270.096 85.8217 268.919 84.8714C260.777 78.2984 243.828 67.9923 228.769 69.8723C227.378 70.046 226.111 70.1899 224.957 70.3078M271.801 96.5181C273.339 102.016 274.635 114.282 267.52 119.357C261.162 123.893 252.53 130.051 248.125 134.583M368.529 134.583L355.188 111.744C348.581 97.1344 326.126 96.9453 313.457 98.9642C311.759 99.2349 310.408 100.488 309.909 102.134V102.134C308.859 105.6 311.971 108.93 315.554 108.408C326.573 106.8 334.667 107.761 339.137 108.986C340.918 109.474 342.956 109.702 344.585 110.572C350.629 113.801 362.479 127.177 368.529 134.583ZM368.529 134.583L359.81 149.095C359.276 149.983 358.56 150.751 357.662 151.269C353.118 153.891 343.825 157.701 334.224 156.788C323.551 155.773 313.26 141.562 309.448 134.583M270.697 29.9036C270.697 27.3659 252.274 23.6215 273.873 13.4086C287.045 7.18046 292.932 9.45257 295.081 12.7673C296.242 14.5591 295.185 16.7763 293.521 18.114C287.441 23.0015 277.262 29.9036 270.697 29.9036ZM270.697 29.9036C264.521 31.6941 252.986 38.5377 253.333 52.0189C253.377 53.7165 254.246 55.2632 255.534 56.3699C266.353 65.6656 286.251 81.6077 292.931 82.5608C299.113 83.4426 297.75 87.5807 295.759 90.3155C295.193 91.0925 294.372 91.6864 293.411 91.6646C290.487 91.5986 284.374 89.2411 275.144 80.0231C261.168 66.0658 226.228 64.3991 224.957 70.3078M309.448 134.583C312.202 132.481 318.696 129.735 326.601 131.512M309.448 134.583L328.824 142.514M309.448 134.583C304.816 131.64 305.389 128.492 306.685 126.658C307.176 125.962 307.947 125.541 308.762 125.293C315.113 123.363 328.376 122.074 339.306 130.143C346.79 135.667 349.639 139.926 350.386 142.719C350.941 144.791 348.844 146.003 346.699 146.003V146.003M326.601 131.512C329.031 132.058 331.595 133.032 334.224 134.583C336.16 135.726 337.844 136.872 339.306 137.999M326.601 131.512C325.79 133.755 324.992 137.976 326.601 140.624M328.824 142.514L343.819 148.651C345.91 149.507 347.822 147.963 346.699 146.003V146.003M328.824 142.514C327.812 142.099 327.093 141.435 326.601 140.624M339.306 137.999C337.612 139.408 332.699 141.904 326.601 140.624M339.306 137.999C343.096 140.922 345.392 143.72 346.699 146.003" stroke="#2A114B" stroke-opacity="0.44" stroke-width="2"/>
</g>
<defs>
<filter id="filter0_d_84_131" x="0.000244141" y="-0.00012207" width="472.3" height="746.489" filterUnits="userSpaceOnUse" color-interpolation-filters="sRGB">
<feFlood flood-opacity="0" result="BackgroundImageFix"/>
<feColorMatrix in="SourceAlpha" type="matrix" values="0 0 0 0 0 0 0 0 0 0 0 0 0 0 0 0 0 0 127 0" result="hardAlpha"/>
<feOffset dx="6" dy="4"/>
<feGaussianBlur stdDeviation="0.15"/>
<feComposite in2="hardAlpha" operator="out"/>
<feColorMatrix type="matrix" values="0 0 0 0 0.164706 0 0 0 0 0.0666667 0 0 0 0 0.294118 0 0 0 0.15 0"/>
<feBlend mode="normal" in2="BackgroundImageFix" result="effect1_dropShadow_84_131"/>
<feBlend mode="normal" in="SourceGraphic" in2="effect1_dropShadow_84_131" result="shape"/>
</filter>
</defs>
</svg>
