<?xml version="1.0" standalone="no"?>
<!DOCTYPE svg PUBLIC "-//W3C//DTD SVG 20010904//EN"
 "http://www.w3.org/TR/2001/REC-SVG-20010904/DTD/svg10.dtd">
<svg version="1.0" xmlns="http://www.w3.org/2000/svg"
 width="500.000000pt" height="500.000000pt" viewBox="0 0 500.000000 500.000000"
 preserveAspectRatio="xMidYMid meet">

<g transform="translate(0.000000,500.000000) scale(0.100000,-0.100000)"
fill="#000000" stroke="none">
<path d="M529 4557 c-24 -13 -57 -43 -74 -66 l-30 -43 0 -1948 0 -1948 30 -43
c17 -23 50 -53 74 -66 l44 -23 1927 0 1927 0 44 23 c66 35 102 93 107 170 4
78 -24 138 -87 182 l-43 30 -1806 5 -1807 5 -5 1807 -5 1806 -30 43 c-39 56
-103 89 -170 89 -35 0 -66 -8 -96 -23z"/>
<path d="M3030 4558 c-25 -14 -58 -44 -75 -67 l-30 -43 -3 -1506 c-1 -829 0
-1522 3 -1540 8 -42 68 -110 120 -133 76 -35 166 -16 229 47 59 60 56 -38 56
1602 l0 1509 -23 44 c-35 66 -93 102 -170 107 -51 3 -70 -1 -107 -20z"/>
<path d="M3875 3732 c-22 -11 -52 -32 -67 -48 -61 -66 -58 -1 -58 -1186 0
-1026 1 -1085 19 -1123 71 -157 287 -165 371 -15 l25 45 0 1095 0 1095 -25 45
c-53 94 -173 136 -265 92z"/>
<path d="M2242 2911 c-81 -21 -147 -98 -157 -185 -3 -28 -5 -337 -3 -686 l3
-635 22 -42 c83 -154 301 -147 374 12 17 38 19 79 19 701 0 468 -3 671 -11
695 -35 102 -145 165 -247 140z"/>
<path d="M1375 2066 c-16 -8 -44 -29 -62 -47 -60 -63 -63 -82 -63 -356 0 -279
5 -300 73 -360 100 -88 251 -61 317 57 24 44 25 51 28 275 2 145 0 249 -7 281
-14 60 -57 117 -112 144 -45 23 -129 26 -174 6z"/>
</g>
</svg>
