<?xml version="1.0" standalone="no"?>
<!DOCTYPE svg PUBLIC "-//W3C//DTD SVG 20010904//EN"
 "http://www.w3.org/TR/2001/REC-SVG-20010904/DTD/svg10.dtd">
<svg version="1.0" xmlns="http://www.w3.org/2000/svg"
 width="500.000000pt" height="500.000000pt" viewBox="0 0 500.000000 500.000000"
 preserveAspectRatio="xMidYMid meet">

<g transform="translate(0.000000,500.000000) scale(0.100000,-0.100000)"
fill="#000000" stroke="none">
<path d="M160 2525 l0 -2316 25 -24 24 -25 2316 0 2315 0 0 75 0 75 -2265 0
-2265 0 0 2265 0 2265 -75 0 -75 0 0 -2315z"/>
<path d="M1175 4455 c-16 -36 -26 -68 -22 -71 3 -3 32 -18 64 -33 l59 -28 34
63 c19 34 32 65 30 67 -7 6 -128 67 -134 67 -2 0 -16 -29 -31 -65z"/>
<path d="M1464 4327 c-11 -17 -28 -44 -38 -59 l-17 -26 56 -43 c33 -24 59 -38
65 -33 29 31 80 97 80 105 0 9 -105 89 -117 89 -4 0 -17 -15 -29 -33z"/>
<path d="M1686 4101 l-49 -50 42 -50 c24 -28 46 -51 51 -51 11 0 110 80 110
90 0 10 -90 110 -99 110 -4 0 -29 -22 -55 -49z"/>
<path d="M1883 3859 l-61 -40 35 -60 c19 -32 39 -59 44 -59 17 0 119 62 119
72 0 9 -68 128 -73 128 -1 0 -30 -18 -64 -41z"/>
<path d="M2030 3584 c-30 -14 -56 -27 -59 -29 -2 -2 9 -33 24 -69 l27 -64 67
25 c36 13 68 27 70 29 8 7 -51 134 -63 134 -6 0 -36 -12 -66 -26z"/>
<path d="M2130 3292 c-30 -8 -56 -16 -58 -17 -2 -2 3 -32 9 -69 12 -61 14 -66
38 -66 34 1 110 16 117 23 4 3 0 38 -7 76 -14 79 -11 78 -99 53z"/>
<path d="M2210 3029 c-109 -12 -250 -45 -370 -85 -192 -65 -468 -209 -631
-331 -134 -100 -310 -285 -422 -445 -37 -51 -52 -65 -67 -61 -11 3 -43 -1 -72
-7 -76 -19 -151 -95 -168 -172 -20 -86 -1 -148 64 -214 41 -40 63 -54 104 -64
194 -46 350 154 258 332 l-27 52 38 55 c184 269 454 490 777 634 241 108 447
157 656 157 183 0 293 -26 456 -108 184 -93 250 -147 579 -478 174 -176 334
-328 365 -348 102 -66 158 -80 310 -80 118 1 146 4 225 28 50 15 119 41 155
57 55 25 70 28 94 20 41 -16 133 -13 169 5 169 85 181 311 23 409 -42 26 -59
30 -115 30 -149 -1 -244 -112 -227 -264 l7 -58 -50 -22 c-80 -34 -160 -52
-257 -58 -107 -7 -173 9 -249 59 -28 17 -189 172 -360 344 -277 278 -322 319
-425 387 -296 195 -538 260 -840 226z m2433 -771 c52 -27 62 -83 22 -123 -49
-50 -135 -15 -135 55 0 36 38 80 70 80 12 0 31 -5 43 -12z m-3883 -328 c12
-12 20 -33 20 -55 0 -48 -29 -75 -79 -75 -31 0 -44 6 -60 26 -12 15 -21 37
-21 49 0 12 9 34 21 49 26 33 88 37 119 6z"/>
<path d="M2227 2677 c-62 -9 -68 -12 -63 -31 3 -12 8 -45 12 -73 6 -47 9 -53
30 -53 42 0 124 21 124 33 0 28 -23 137 -29 135 -3 0 -37 -6 -74 -11z"/>
<path d="M2275 2368 c-27 -6 -51 -12 -53 -13 -6 -5 20 -129 28 -138 8 -9 118
11 133 23 4 4 3 37 -4 74 -14 74 -11 72 -104 54z"/>
<path d="M2344 2062 l-61 -17 18 -68 c9 -38 19 -70 21 -72 9 -9 138 30 138 42
0 31 -34 133 -44 132 -6 0 -38 -8 -72 -17z"/>
<path d="M2440 1765 c-75 -26 -78 -34 -38 -122 l23 -52 60 26 c33 13 63 28 68
32 5 6 -35 128 -45 136 -2 1 -32 -8 -68 -20z"/>
<path d="M2570 1479 c-30 -16 -59 -34 -64 -39 -9 -9 62 -130 77 -130 4 0 32
19 62 41 l55 41 -23 37 c-12 21 -29 47 -37 59 l-15 22 -55 -31z"/>
<path d="M2743 1221 l-53 -47 53 -52 c29 -29 57 -52 63 -52 10 0 89 95 89 108
0 7 -89 92 -96 92 -2 -1 -28 -22 -56 -49z"/>
<path d="M2984 1025 c-19 -31 -32 -60 -29 -65 7 -11 109 -70 122 -70 5 0 23
29 40 64 l32 65 -54 30 c-30 17 -59 31 -65 31 -6 0 -26 -25 -46 -55z"/>
<path d="M3274 915 c-7 -19 -20 -50 -28 -69 l-14 -34 70 -27 c39 -14 74 -22
78 -18 4 4 17 36 28 71 20 58 20 63 4 69 -9 3 -39 14 -65 25 -26 10 -50 18
-53 18 -3 0 -12 -16 -20 -35z"/>
<path d="M3576 849 c-3 -8 -10 -34 -16 -59 -6 -25 -13 -52 -16 -62 -4 -13 9
-19 66 -32 39 -9 75 -14 79 -11 5 2 12 26 16 52 3 27 9 58 12 70 4 19 -1 22
-53 33 -32 7 -64 15 -71 17 -7 3 -15 -1 -17 -8z"/>
<path d="M3877 794 c-3 -5 -8 -39 -12 -75 l-7 -67 72 -7 c39 -4 73 -6 75 -4 2
2 7 37 10 77 8 72 8 72 -17 72 -14 0 -45 3 -70 6 -25 4 -48 2 -51 -2z"/>
</g>
</svg>
